<svg width="533" height="800" viewBox="0 0 533 800" fill="none" xmlns="http://www.w3.org/2000/svg">
<rect width="533" height="800" fill="#050536"/>
<path d="M167.25 61.25H171.125L176.875 77.875L182.625 61.25H186.5V82.625H183.625V66.25L177.875 82.625H175.875L170.125 66.25V82.625H167.25V61.25ZM189 68.5H191.75L196.25 79.625L200.75 68.5H203.5L197.25 83.5C196.75 84.75 196.25 85.625 195.75 86.125C195.083 86.7917 194.25 87.125 193.25 87.125C192.083 87.125 191.333 86.9583 191 86.625V84.25C191.667 84.5833 192.375 84.75 193.125 84.75C193.542 84.75 193.917 84.5833 194.25 84.25C194.583 83.9167 194.833 83.4583 195 82.875L189 68.5ZM215.875 61.25H218.375V82.625H215.875V61.25ZM222 75.625C222 73.375 222.708 71.5417 224.125 70.125C225.292 68.9583 226.792 68.375 228.625 68.375C230.375 68.375 231.875 69 233.125 70.25C234.292 71.4167 234.875 73.2083 234.875 75.625H224.75C224.75 77.375 225.167 78.6667 226 79.5C226.75 80.25 227.708 80.625 228.875 80.625C230.042 80.625 230.875 80.375 231.375 79.875C231.958 79.2917 232.25 78.625 232.25 77.875H235C234.667 79.375 234.125 80.5 233.375 81.25C232.292 82.3333 230.792 82.875 228.875 82.875C226.875 82.875 225.25 82.25 224 81C222.667 79.6667 222 77.875 222 75.625ZM228.5 70.5C227.5 70.5 226.667 70.8333 226 71.5C225.417 72.0833 225.042 72.7917 224.875 73.625H232C232 72.7917 231.667 72.0417 231 71.375C230.417 70.7917 229.583 70.5 228.5 70.5ZM238.25 72.75C238.5 71.5833 239.042 70.5833 239.875 69.75C240.792 68.8333 242.125 68.375 243.875 68.375C245.958 68.375 247.458 68.8333 248.375 69.75C249.208 70.5833 249.625 71.5417 249.625 72.625V80.5C249.625 81.4167 249.958 82.125 250.625 82.625H247.625C247.292 82.2917 247.125 81.75 247.125 81C245.875 82.25 244.292 82.875 242.375 82.875C240.792 82.875 239.583 82.4583 238.75 81.625C238 80.875 237.625 80 237.625 79C237.625 77.8333 238 76.875 238.75 76.125C239.583 75.2917 240.75 74.75 242.25 74.5C243.25 74.3333 244.125 74.125 244.875 73.875C245.958 73.625 246.708 73.375 247.125 73.125C247.125 72.4583 246.875 71.875 246.375 71.375C245.875 70.875 245.167 70.625 244.25 70.625C243.083 70.625 242.25 70.875 241.75 71.375C241.417 71.7083 241.167 72.1667 241 72.75H238.25ZM247.125 75.5C246.625 75.6667 246.167 75.7917 245.75 75.875C244.333 76.2083 243.25 76.4583 242.5 76.625C241.833 76.7917 241.333 77.0417 241 77.375C240.583 77.7917 240.375 78.25 240.375 78.75C240.375 79.3333 240.583 79.8333 241 80.25C241.25 80.5 241.792 80.625 242.625 80.625C244.042 80.625 245.208 80.1667 246.125 79.25C246.708 78.6667 247.042 78.25 247.125 78V75.5ZM257.375 70.375C258.708 69.0417 260.5 68.375 262.75 68.375V71.125C262.417 71.0417 261.958 71 261.375 71C260.125 71 258.958 71.5417 257.875 72.625C256.958 73.5417 256.333 74.5 256 75.5V82.625H253.5V68.625H256V72.125C256.417 71.4583 256.875 70.875 257.375 70.375ZM267.25 82.625H264.75V68.625H267.25V71.125C268.75 69.2917 270.333 68.375 272 68.375C273.667 68.375 275 68.875 276 69.875C276.667 70.5417 277 71.3333 277 72.25V82.625H274.5V73C274.5 72.25 274.25 71.625 273.75 71.125C273.25 70.625 272.542 70.375 271.625 70.375C270.792 70.375 269.958 70.7917 269.125 71.625C267.875 72.875 267.25 74.2083 267.25 75.625V82.625ZM281 61.375H283.5V64.625H281V61.375ZM281 68.625H283.5V82.625H281V68.625ZM290 82.625H287.5V68.625H290V71.125C291.5 69.2917 293.083 68.375 294.75 68.375C296.417 68.375 297.75 68.875 298.75 69.875C299.417 70.5417 299.75 71.3333 299.75 72.25V82.625H297.25V73C297.25 72.25 297 71.625 296.5 71.125C296 70.625 295.292 70.375 294.375 70.375C293.542 70.375 292.708 70.7917 291.875 71.625C290.625 72.875 290 74.2083 290 75.625V82.625ZM303.75 73.25C303.75 71.8333 304.208 70.6667 305.125 69.75C306.042 68.8333 307.208 68.375 308.625 68.375C309.958 68.375 311.125 68.7917 312.125 69.625C312.958 68.7917 313.958 68.375 315.125 68.375H316.25V70.75C315.25 70.3333 314.125 70.2917 312.875 70.625C313.458 71.375 313.75 72.25 313.75 73.25C313.75 74.75 313.292 75.9583 312.375 76.875C311.542 77.7083 310.333 78.125 308.75 78.125C307.917 78.125 307.042 77.9167 306.125 77.5C305.708 77.8333 305.5 78.1667 305.5 78.5C305.5 78.75 305.583 78.9583 305.75 79.125C306.167 79.5417 307.125 79.7917 308.625 79.875C309.958 79.9583 311.375 80.0417 312.875 80.125C313.708 80.2917 314.333 80.5833 314.75 81C315.417 81.6667 315.75 82.4583 315.75 83.375C315.75 84.375 315.417 85.2083 314.75 85.875C313.833 86.7917 311.833 87.25 308.75 87.25C306.167 87.25 304.417 86.7917 303.5 85.875C302.917 85.2917 302.625 84.5833 302.625 83.75C302.625 83.1667 302.833 82.6667 303.25 82.25C303.583 81.9167 304.083 81.5833 304.75 81.25C304.5 81.0833 304.208 80.8333 303.875 80.5C303.458 80.0833 303.25 79.5417 303.25 78.875C303.25 78.0417 303.875 77.25 305.125 76.5C304.208 75.5833 303.75 74.5 303.75 73.25ZM308.625 70.5C308.042 70.5 307.542 70.7083 307.125 71.125C306.542 71.7083 306.25 72.4167 306.25 73.25C306.25 74.0833 306.5 74.75 307 75.25C307.5 75.75 308.083 76 308.75 76C309.5 76 310.083 75.7917 310.5 75.375C311 74.875 311.25 74.1667 311.25 73.25C311.25 72.4167 310.958 71.7083 310.375 71.125C309.958 70.7083 309.375 70.5 308.625 70.5ZM311.25 82.25C309.25 82.1667 307.708 82.0417 306.625 81.875C306.042 82.0417 305.625 82.25 305.375 82.5C305.042 82.8333 304.875 83.2083 304.875 83.625C304.875 84.0417 305.042 84.4167 305.375 84.75C305.875 85.25 306.958 85.5 308.625 85.5C310.875 85.5 312.292 85.2083 312.875 84.625C313.208 84.2917 313.375 83.9583 313.375 83.625C313.375 83.2917 313.25 83 313 82.75C312.667 82.4167 312.083 82.25 311.25 82.25ZM330.25 87.25H327.75V68.625H330.25V70.25C331.25 69 332.542 68.375 334.125 68.375C335.875 68.375 337.292 68.9167 338.375 70C339.708 71.3333 340.375 73.2083 340.375 75.625C340.375 78.125 339.708 80.0417 338.375 81.375C337.292 82.4583 335.875 83 334.125 83C332.375 83 331.083 82.3333 330.25 81V87.25ZM334.125 70.625C333.125 70.625 332.25 71 331.5 71.75C330.667 72.5833 330.25 73.5833 330.25 74.75V76.5C330.25 77.6667 330.708 78.7083 331.625 79.625C332.375 80.375 333.208 80.75 334.125 80.75C334.958 80.75 335.667 80.4583 336.25 79.875C337.167 78.9583 337.625 77.5417 337.625 75.625C337.625 73.7917 337.208 72.4583 336.375 71.625C335.708 70.9583 334.958 70.625 334.125 70.625ZM343.75 72.75C344 71.5833 344.542 70.5833 345.375 69.75C346.292 68.8333 347.625 68.375 349.375 68.375C351.458 68.375 352.958 68.8333 353.875 69.75C354.708 70.5833 355.125 71.5417 355.125 72.625V80.5C355.125 81.4167 355.458 82.125 356.125 82.625H353.125C352.792 82.2917 352.625 81.75 352.625 81C351.375 82.25 349.792 82.875 347.875 82.875C346.292 82.875 345.083 82.4583 344.25 81.625C343.5 80.875 343.125 80 343.125 79C343.125 77.8333 343.5 76.875 344.25 76.125C345.083 75.2917 346.25 74.75 347.75 74.5C348.75 74.3333 349.625 74.125 350.375 73.875C351.458 73.625 352.208 73.375 352.625 73.125C352.625 72.4583 352.375 71.875 351.875 71.375C351.375 70.875 350.667 70.625 349.75 70.625C348.583 70.625 347.75 70.875 347.25 71.375C346.917 71.7083 346.667 72.1667 346.5 72.75H343.75ZM352.625 75.5C352.125 75.6667 351.667 75.7917 351.25 75.875C349.833 76.2083 348.75 76.4583 348 76.625C347.333 76.7917 346.833 77.0417 346.5 77.375C346.083 77.7917 345.875 78.25 345.875 78.75C345.875 79.3333 346.083 79.8333 346.5 80.25C346.75 80.5 347.292 80.625 348.125 80.625C349.542 80.625 350.708 80.1667 351.625 79.25C352.208 78.6667 352.542 78.25 352.625 78V75.5ZM360.25 63.75H362.75V68.625H367V70.625H362.75V78.75C362.75 79.25 362.958 79.7083 363.375 80.125C363.708 80.4583 364.25 80.625 365 80.625C366.167 80.625 367.208 80.3333 368.125 79.75V82.125C367.208 82.625 366.208 82.875 365.125 82.875C363.458 82.875 362.25 82.5 361.5 81.75C360.667 80.9167 360.25 80 360.25 79V70.625H357.25V68.625H360.25V63.75ZM370.375 61.25H372.875V71.125C374.292 69.2917 375.833 68.375 377.5 68.375C379.25 68.375 380.542 68.7917 381.375 69.625C382.208 70.4583 382.625 71.4583 382.625 72.625V82.625H380.125V73.25C380.125 72.3333 379.833 71.5833 379.25 71C378.833 70.5833 378.25 70.375 377.5 70.375C376.583 70.375 375.75 70.75 375 71.5C374.083 72.4167 373.375 73.7083 372.875 75.375V82.625H370.375V61.25Z" fill="white"/>
<path d="M276.583 125C276.583 130.6 279.273 134.779 279.273 140.704C279.273 149.433 275.754 156.37 271.8 163.189C267.222 171.085 262.247 184.707 261.787 194.061C261.293 204.069 268.997 210.003 269.857 219.758C270.462 226.619 274.168 231.067 275.537 237.424C276.76 243.105 280.618 247.565 280.618 253.485C280.618 265.466 275.238 275.838 275.238 287.212C275.238 293.833 274.21 296.321 271.203 302.024C268.732 306.709 268.748 312.99 266.868 317.727C264.392 323.97 261.357 330.319 259.395 336.643C257.363 343.196 258.14 350.324 256.705 356.987C253.861 370.189 250.559 387.027 252.669 400.886C255.47 419.275 263.344 431.674 272.847 447.104C278.12 455.668 285.999 466.383 285.999 477.976C285.999 485.282 286.139 490.495 283.01 497.071C280.348 502.665 276.106 509.687 274.192 515.63C271.06 525.353 262.261 535.583 261.787 545.788C261.314 555.945 259.921 565.739 260.441 576.303C260.642 580.385 262.594 585.368 264.178 589.152C265.741 592.883 263.142 598.316 264.776 602C267.862 608.961 269.857 617.258 269.857 626.091C269.857 629.731 271.018 637.253 269.558 640.545C267.002 646.311 261.534 647.17 260.441 655" stroke="white" stroke-width="3" stroke-linecap="round"/>
<path d="M185.992 134.28V157H183.112V146.664H170.6V157H167.72V134.28H170.6V144.104H183.112V134.28H185.992ZM207.823 136.84H199.983V157H197.103V136.84H189.263V134.28H207.823V136.84ZM230.743 157V139.656L223.255 153H221.495L213.975 139.656V157H211.095V134.28H214.135L222.359 149.032L230.615 134.28H233.623V157H230.743ZM239.064 157V134.28H241.944V154.44H254.616V157H239.064Z" fill="white"/>
<path d="M294.72 260V237.28H304.448C305.451 237.28 306.368 237.493 307.2 237.92C308.032 238.325 308.757 238.88 309.376 239.584C309.995 240.267 310.475 241.045 310.816 241.92C311.157 242.773 311.328 243.648 311.328 244.544C311.328 245.589 311.125 246.581 310.72 247.52C310.336 248.459 309.781 249.259 309.056 249.92C308.352 250.581 307.52 251.04 306.56 251.296L312.064 260H308.8L303.616 251.84H297.6V260H294.72ZM297.6 249.28H304.48C305.269 249.28 305.952 249.067 306.528 248.64C307.125 248.192 307.584 247.605 307.904 246.88C308.245 246.155 308.416 245.376 308.416 244.544C308.416 243.691 308.224 242.912 307.84 242.208C307.456 241.483 306.955 240.907 306.336 240.48C305.717 240.053 305.035 239.84 304.288 239.84H297.6V249.28ZM331.175 257.44V260H315.751V237.28H330.887V239.84H318.631V247.2H329.287V249.6H318.631V257.44H331.175ZM342.038 237.28H344.47L353.75 260H350.678L347.99 253.344H338.454L335.798 260H332.726L342.038 237.28ZM347.35 251.104L343.254 240.608L339.03 251.104H347.35ZM354.467 248.48C354.467 247.093 354.701 245.739 355.171 244.416C355.661 243.072 356.365 241.856 357.283 240.768C358.221 239.659 359.363 238.784 360.707 238.144C362.051 237.483 363.576 237.152 365.283 237.152C367.309 237.152 369.048 237.621 370.499 238.56C371.949 239.477 373.027 240.661 373.731 242.112L371.459 243.584C371.011 242.624 370.435 241.867 369.731 241.312C369.048 240.736 368.301 240.331 367.491 240.096C366.701 239.861 365.923 239.744 365.155 239.744C363.896 239.744 362.776 240 361.795 240.512C360.835 241.024 360.024 241.707 359.363 242.56C358.701 243.413 358.2 244.373 357.859 245.44C357.539 246.485 357.379 247.541 357.379 248.608C357.379 249.781 357.571 250.912 357.955 252C358.36 253.088 358.915 254.048 359.619 254.88C360.323 255.712 361.155 256.373 362.115 256.864C363.075 257.355 364.12 257.6 365.251 257.6C366.04 257.6 366.851 257.461 367.683 257.184C368.515 256.907 369.293 256.48 370.019 255.904C370.744 255.307 371.32 254.539 371.747 253.6L374.147 254.912C373.677 256.043 372.952 257.003 371.971 257.792C370.989 258.581 369.891 259.179 368.675 259.584C367.48 259.989 366.296 260.192 365.123 260.192C363.565 260.192 362.136 259.861 360.835 259.2C359.533 258.517 358.403 257.621 357.443 256.512C356.504 255.381 355.768 254.123 355.235 252.736C354.723 251.328 354.467 249.909 354.467 248.48ZM394.135 239.84H386.295V260H383.415V239.84H375.575V237.28H394.135V239.84Z" fill="white"/>
<path d="M297.248 161.48C297.248 160.093 297.483 158.739 297.952 157.416C298.443 156.072 299.147 154.856 300.064 153.768C301.003 152.659 302.144 151.784 303.488 151.144C304.832 150.483 306.357 150.152 308.064 150.152C310.091 150.152 311.829 150.621 313.28 151.56C314.731 152.477 315.808 153.661 316.512 155.112L314.24 156.584C313.792 155.624 313.216 154.867 312.512 154.312C311.829 153.736 311.083 153.331 310.272 153.096C309.483 152.861 308.704 152.744 307.936 152.744C306.677 152.744 305.557 153 304.576 153.512C303.616 154.024 302.805 154.707 302.144 155.56C301.483 156.413 300.981 157.373 300.64 158.44C300.32 159.485 300.16 160.541 300.16 161.608C300.16 162.781 300.352 163.912 300.736 165C301.141 166.088 301.696 167.048 302.4 167.88C303.104 168.712 303.936 169.373 304.896 169.864C305.856 170.355 306.901 170.6 308.032 170.6C308.821 170.6 309.632 170.461 310.464 170.184C311.296 169.907 312.075 169.48 312.8 168.904C313.525 168.307 314.101 167.539 314.528 166.6L316.928 167.912C316.459 169.043 315.733 170.003 314.752 170.792C313.771 171.581 312.672 172.179 311.456 172.584C310.261 172.989 309.077 173.192 307.904 173.192C306.347 173.192 304.917 172.861 303.616 172.2C302.315 171.517 301.184 170.621 300.224 169.512C299.285 168.381 298.549 167.123 298.016 165.736C297.504 164.328 297.248 162.909 297.248 161.48ZM333.877 155.048C333.621 154.749 333.279 154.461 332.853 154.184C332.426 153.907 331.946 153.661 331.413 153.448C330.879 153.213 330.293 153.032 329.653 152.904C329.034 152.755 328.383 152.68 327.701 152.68C325.951 152.68 324.661 153.011 323.829 153.672C322.997 154.333 322.581 155.24 322.581 156.392C322.581 157.203 322.794 157.843 323.221 158.312C323.647 158.781 324.298 159.165 325.173 159.464C326.069 159.763 327.199 160.072 328.565 160.392C330.143 160.733 331.509 161.149 332.661 161.64C333.813 162.131 334.698 162.792 335.317 163.624C335.935 164.435 336.245 165.523 336.245 166.888C336.245 167.976 336.031 168.925 335.605 169.736C335.199 170.525 334.623 171.187 333.877 171.72C333.13 172.232 332.255 172.616 331.253 172.872C330.25 173.107 329.162 173.224 327.989 173.224C326.837 173.224 325.706 173.107 324.597 172.872C323.509 172.616 322.474 172.253 321.493 171.784C320.511 171.315 319.594 170.728 318.741 170.024L320.117 167.592C320.458 167.955 320.895 168.317 321.429 168.68C321.983 169.021 322.602 169.341 323.285 169.64C323.989 169.939 324.746 170.184 325.557 170.376C326.367 170.547 327.199 170.632 328.053 170.632C329.674 170.632 330.933 170.344 331.829 169.768C332.725 169.171 333.173 168.307 333.173 167.176C333.173 166.323 332.917 165.64 332.405 165.128C331.914 164.616 331.178 164.189 330.197 163.848C329.215 163.507 328.021 163.165 326.613 162.824C325.077 162.44 323.786 162.024 322.741 161.576C321.695 161.107 320.906 160.499 320.373 159.752C319.861 159.005 319.605 158.035 319.605 156.84C319.605 155.389 319.957 154.163 320.661 153.16C321.365 152.157 322.335 151.4 323.573 150.888C324.81 150.376 326.207 150.12 327.765 150.12C328.789 150.12 329.738 150.227 330.613 150.44C331.509 150.653 332.341 150.952 333.109 151.336C333.877 151.72 334.581 152.179 335.221 152.712L333.877 155.048ZM353.377 155.048C353.121 154.749 352.779 154.461 352.353 154.184C351.926 153.907 351.446 153.661 350.913 153.448C350.379 153.213 349.793 153.032 349.153 152.904C348.534 152.755 347.883 152.68 347.201 152.68C345.451 152.68 344.161 153.011 343.329 153.672C342.497 154.333 342.081 155.24 342.081 156.392C342.081 157.203 342.294 157.843 342.721 158.312C343.147 158.781 343.798 159.165 344.673 159.464C345.569 159.763 346.699 160.072 348.065 160.392C349.643 160.733 351.009 161.149 352.161 161.64C353.313 162.131 354.198 162.792 354.817 163.624C355.435 164.435 355.745 165.523 355.745 166.888C355.745 167.976 355.531 168.925 355.105 169.736C354.699 170.525 354.123 171.187 353.377 171.72C352.63 172.232 351.755 172.616 350.753 172.872C349.75 173.107 348.662 173.224 347.489 173.224C346.337 173.224 345.206 173.107 344.097 172.872C343.009 172.616 341.974 172.253 340.993 171.784C340.011 171.315 339.094 170.728 338.241 170.024L339.617 167.592C339.958 167.955 340.395 168.317 340.929 168.68C341.483 169.021 342.102 169.341 342.785 169.64C343.489 169.939 344.246 170.184 345.057 170.376C345.867 170.547 346.699 170.632 347.553 170.632C349.174 170.632 350.433 170.344 351.329 169.768C352.225 169.171 352.673 168.307 352.673 167.176C352.673 166.323 352.417 165.64 351.905 165.128C351.414 164.616 350.678 164.189 349.697 163.848C348.715 163.507 347.521 163.165 346.113 162.824C344.577 162.44 343.286 162.024 342.241 161.576C341.195 161.107 340.406 160.499 339.873 159.752C339.361 159.005 339.105 158.035 339.105 156.84C339.105 155.389 339.457 154.163 340.161 153.16C340.865 152.157 341.835 151.4 343.073 150.888C344.31 150.376 345.707 150.12 347.265 150.12C348.289 150.12 349.238 150.227 350.113 150.44C351.009 150.653 351.841 150.952 352.609 151.336C353.377 151.72 354.081 152.179 354.721 152.712L353.377 155.048Z" fill="white"/>
<path d="M305.16 439.144C305.16 440.317 304.861 441.341 304.264 442.216C303.667 443.091 302.856 443.773 301.832 444.264C300.829 444.755 299.72 445 298.504 445H287.72V422.28H299.016C300.083 422.28 301 422.568 301.768 423.144C302.557 423.699 303.155 424.424 303.56 425.32C303.987 426.195 304.2 427.112 304.2 428.072C304.2 429.181 303.912 430.227 303.336 431.208C302.781 432.168 301.981 432.883 300.936 433.352C302.237 433.736 303.261 434.451 304.008 435.496C304.776 436.52 305.16 437.736 305.16 439.144ZM302.248 438.632C302.248 437.928 302.088 437.277 301.768 436.68C301.469 436.083 301.053 435.603 300.52 435.24C300.008 434.877 299.411 434.696 298.728 434.696H290.6V442.504H298.504C299.208 442.504 299.837 442.323 300.392 441.96C300.968 441.597 301.416 441.128 301.736 440.552C302.077 439.955 302.248 439.315 302.248 438.632ZM290.6 424.776V432.36H297.832C298.515 432.36 299.112 432.189 299.624 431.848C300.157 431.507 300.573 431.048 300.872 430.472C301.192 429.896 301.352 429.267 301.352 428.584C301.352 427.859 301.203 427.219 300.904 426.664C300.627 426.088 300.232 425.629 299.72 425.288C299.229 424.947 298.664 424.776 298.024 424.776H290.6ZM318.405 445.16C316.805 445.16 315.354 444.84 314.053 444.2C312.751 443.56 311.621 442.696 310.661 441.608C309.722 440.499 308.997 439.261 308.485 437.896C307.973 436.509 307.717 435.091 307.717 433.64C307.717 432.125 307.983 430.685 308.517 429.32C309.071 427.933 309.829 426.707 310.789 425.64C311.77 424.552 312.911 423.699 314.213 423.08C315.514 422.44 316.933 422.12 318.469 422.12C320.069 422.12 321.519 422.451 322.821 423.112C324.122 423.773 325.242 424.659 326.181 425.768C327.119 426.877 327.845 428.115 328.357 429.48C328.869 430.845 329.125 432.243 329.125 433.672C329.125 435.187 328.858 436.637 328.325 438.024C327.791 439.389 327.034 440.616 326.053 441.704C325.093 442.771 323.962 443.613 322.661 444.232C321.359 444.851 319.941 445.16 318.405 445.16ZM310.629 433.64C310.629 434.792 310.81 435.912 311.173 437C311.557 438.067 312.09 439.016 312.773 439.848C313.455 440.68 314.277 441.341 315.237 441.832C316.197 442.323 317.263 442.568 318.437 442.568C319.653 442.568 320.741 442.312 321.701 441.8C322.661 441.288 323.471 440.605 324.133 439.752C324.815 438.899 325.327 437.939 325.669 436.872C326.031 435.805 326.213 434.728 326.213 433.64C326.213 432.488 326.021 431.379 325.637 430.312C325.274 429.245 324.741 428.296 324.037 427.464C323.354 426.611 322.533 425.949 321.573 425.48C320.634 424.989 319.589 424.744 318.437 424.744C317.221 424.744 316.133 425 315.173 425.512C314.213 426.003 313.391 426.675 312.709 427.528C312.047 428.381 311.535 429.341 311.173 430.408C310.81 431.453 310.629 432.531 310.629 433.64ZM342.342 445.16C340.742 445.16 339.292 444.84 337.99 444.2C336.689 443.56 335.558 442.696 334.598 441.608C333.66 440.499 332.934 439.261 332.422 437.896C331.91 436.509 331.654 435.091 331.654 433.64C331.654 432.125 331.921 430.685 332.454 429.32C333.009 427.933 333.766 426.707 334.726 425.64C335.708 424.552 336.849 423.699 338.15 423.08C339.452 422.44 340.87 422.12 342.406 422.12C344.006 422.12 345.457 422.451 346.758 423.112C348.06 423.773 349.18 424.659 350.118 425.768C351.057 426.877 351.782 428.115 352.294 429.48C352.806 430.845 353.062 432.243 353.062 433.672C353.062 435.187 352.796 436.637 352.262 438.024C351.729 439.389 350.972 440.616 349.99 441.704C349.03 442.771 347.9 443.613 346.598 444.232C345.297 444.851 343.878 445.16 342.342 445.16ZM334.566 433.64C334.566 434.792 334.748 435.912 335.11 437C335.494 438.067 336.028 439.016 336.71 439.848C337.393 440.68 338.214 441.341 339.174 441.832C340.134 442.323 341.201 442.568 342.374 442.568C343.59 442.568 344.678 442.312 345.638 441.8C346.598 441.288 347.409 440.605 348.07 439.752C348.753 438.899 349.265 437.939 349.606 436.872C349.969 435.805 350.15 434.728 350.15 433.64C350.15 432.488 349.958 431.379 349.574 430.312C349.212 429.245 348.678 428.296 347.974 427.464C347.292 426.611 346.47 425.949 345.51 425.48C344.572 424.989 343.526 424.744 342.374 424.744C341.158 424.744 340.07 425 339.11 425.512C338.15 426.003 337.329 426.675 336.646 427.528C335.985 428.381 335.473 429.341 335.11 430.408C334.748 431.453 334.566 432.531 334.566 433.64ZM372.729 424.84H364.889V445H362.009V424.84H354.169V422.28H372.729V424.84ZM389.345 427.048C389.089 426.749 388.748 426.461 388.321 426.184C387.895 425.907 387.415 425.661 386.881 425.448C386.348 425.213 385.761 425.032 385.121 424.904C384.503 424.755 383.852 424.68 383.169 424.68C381.42 424.68 380.129 425.011 379.297 425.672C378.465 426.333 378.049 427.24 378.049 428.392C378.049 429.203 378.263 429.843 378.689 430.312C379.116 430.781 379.767 431.165 380.641 431.464C381.537 431.763 382.668 432.072 384.033 432.392C385.612 432.733 386.977 433.149 388.129 433.64C389.281 434.131 390.167 434.792 390.785 435.624C391.404 436.435 391.713 437.523 391.713 438.888C391.713 439.976 391.5 440.925 391.073 441.736C390.668 442.525 390.092 443.187 389.345 443.72C388.599 444.232 387.724 444.616 386.721 444.872C385.719 445.107 384.631 445.224 383.457 445.224C382.305 445.224 381.175 445.107 380.065 444.872C378.977 444.616 377.943 444.253 376.961 443.784C375.98 443.315 375.063 442.728 374.209 442.024L375.585 439.592C375.927 439.955 376.364 440.317 376.897 440.68C377.452 441.021 378.071 441.341 378.753 441.64C379.457 441.939 380.215 442.184 381.025 442.376C381.836 442.547 382.668 442.632 383.521 442.632C385.143 442.632 386.401 442.344 387.297 441.768C388.193 441.171 388.641 440.307 388.641 439.176C388.641 438.323 388.385 437.64 387.873 437.128C387.383 436.616 386.647 436.189 385.665 435.848C384.684 435.507 383.489 435.165 382.081 434.824C380.545 434.44 379.255 434.024 378.209 433.576C377.164 433.107 376.375 432.499 375.841 431.752C375.329 431.005 375.073 430.035 375.073 428.84C375.073 427.389 375.425 426.163 376.129 425.16C376.833 424.157 377.804 423.4 379.041 422.888C380.279 422.376 381.676 422.12 383.233 422.12C384.257 422.12 385.207 422.227 386.081 422.44C386.977 422.653 387.809 422.952 388.577 423.336C389.345 423.72 390.049 424.179 390.689 424.712L389.345 427.048ZM411.885 424.84H404.045V445H401.165V424.84H393.325V422.28H411.885V424.84ZM415.158 445V422.28H424.886C425.888 422.28 426.806 422.493 427.638 422.92C428.47 423.325 429.195 423.88 429.814 424.584C430.432 425.267 430.912 426.045 431.253 426.92C431.595 427.773 431.766 428.648 431.766 429.544C431.766 430.589 431.563 431.581 431.158 432.52C430.774 433.459 430.219 434.259 429.494 434.92C428.79 435.581 427.958 436.04 426.998 436.296L432.502 445H429.238L424.054 436.84H418.038V445H415.158ZM418.038 434.28H424.918C425.707 434.28 426.39 434.067 426.966 433.64C427.563 433.192 428.022 432.605 428.342 431.88C428.683 431.155 428.854 430.376 428.854 429.544C428.854 428.691 428.662 427.912 428.278 427.208C427.894 426.483 427.392 425.907 426.774 425.48C426.155 425.053 425.472 424.84 424.726 424.84H418.038V434.28ZM443.101 422.28H445.533L454.813 445H451.741L449.053 438.344H439.517L436.861 445H433.789L443.101 422.28ZM448.413 436.104L444.317 425.608L440.093 436.104H448.413ZM457.845 445V422.28H467.317C468.32 422.28 469.237 422.493 470.069 422.92C470.901 423.325 471.626 423.88 472.245 424.584C472.864 425.267 473.344 426.045 473.685 426.92C474.026 427.773 474.197 428.648 474.197 429.544C474.197 430.781 473.92 431.965 473.365 433.096C472.81 434.205 472.032 435.112 471.029 435.816C470.026 436.499 468.853 436.84 467.509 436.84H460.725V445H457.845ZM460.725 434.28H467.349C468.138 434.28 468.821 434.067 469.397 433.64C469.994 433.213 470.453 432.637 470.773 431.912C471.114 431.187 471.285 430.397 471.285 429.544C471.285 428.648 471.093 427.848 470.709 427.144C470.325 426.419 469.824 425.853 469.205 425.448C468.586 425.043 467.904 424.84 467.157 424.84H460.725V434.28Z" fill="white"/>
<path d="M47.12 229.608C47.5253 229.885 48.08 230.152 48.784 230.408C49.5093 230.643 50.3627 230.76 51.344 230.76C52.3467 230.76 53.168 230.6 53.808 230.28C54.448 229.939 54.9387 229.437 55.28 228.776C55.6213 228.093 55.856 227.229 55.984 226.184C56.112 225.139 56.176 223.901 56.176 222.472V210.28H59.056V221.832C59.056 223.517 58.9707 225.064 58.8 226.472C58.6293 227.88 58.288 229.107 57.776 230.152C57.264 231.176 56.496 231.965 55.472 232.52C54.4693 233.075 53.1253 233.352 51.44 233.352C50.3733 233.352 49.4347 233.235 48.624 233C47.8133 232.765 47.0667 232.413 46.384 231.944L47.12 229.608ZM70.632 210.28H73.064L82.344 233H79.272L76.584 226.344H67.048L64.392 233H61.32L70.632 210.28ZM75.944 224.104L71.848 213.608L67.624 224.104H75.944ZM84.1725 210.28L91.6925 229.384L99.1805 210.28H102.221L93.0045 233H90.3805L81.1325 210.28H84.1725ZM110.351 210.28H112.783L122.063 233H118.991L116.303 226.344H106.767L104.111 233H101.039L110.351 210.28ZM115.663 224.104L111.567 213.608L107.343 224.104H115.663ZM138.127 215.048C137.871 214.749 137.529 214.461 137.103 214.184C136.676 213.907 136.196 213.661 135.663 213.448C135.129 213.213 134.543 213.032 133.903 212.904C133.284 212.755 132.633 212.68 131.951 212.68C130.201 212.68 128.911 213.011 128.079 213.672C127.247 214.333 126.831 215.24 126.831 216.392C126.831 217.203 127.044 217.843 127.471 218.312C127.897 218.781 128.548 219.165 129.423 219.464C130.319 219.763 131.449 220.072 132.815 220.392C134.393 220.733 135.759 221.149 136.911 221.64C138.063 222.131 138.948 222.792 139.567 223.624C140.185 224.435 140.495 225.523 140.495 226.888C140.495 227.976 140.281 228.925 139.855 229.736C139.449 230.525 138.873 231.187 138.127 231.72C137.38 232.232 136.505 232.616 135.503 232.872C134.5 233.107 133.412 233.224 132.239 233.224C131.087 233.224 129.956 233.107 128.847 232.872C127.759 232.616 126.724 232.253 125.743 231.784C124.761 231.315 123.844 230.728 122.991 230.024L124.367 227.592C124.708 227.955 125.145 228.317 125.679 228.68C126.233 229.021 126.852 229.341 127.535 229.64C128.239 229.939 128.996 230.184 129.807 230.376C130.617 230.547 131.449 230.632 132.303 230.632C133.924 230.632 135.183 230.344 136.079 229.768C136.975 229.171 137.423 228.307 137.423 227.176C137.423 226.323 137.167 225.64 136.655 225.128C136.164 224.616 135.428 224.189 134.447 223.848C133.465 223.507 132.271 223.165 130.863 222.824C129.327 222.44 128.036 222.024 126.991 221.576C125.945 221.107 125.156 220.499 124.623 219.752C124.111 219.005 123.855 218.035 123.855 216.84C123.855 215.389 124.207 214.163 124.911 213.16C125.615 212.157 126.585 211.4 127.823 210.888C129.06 210.376 130.457 210.12 132.015 210.12C133.039 210.12 133.988 210.227 134.863 210.44C135.759 210.653 136.591 210.952 137.359 211.336C138.127 211.72 138.831 212.179 139.471 212.712L138.127 215.048ZM142.811 221.48C142.811 220.093 143.045 218.739 143.515 217.416C144.005 216.072 144.709 214.856 145.627 213.768C146.565 212.659 147.707 211.784 149.051 211.144C150.395 210.483 151.92 210.152 153.627 210.152C155.653 210.152 157.392 210.621 158.843 211.56C160.293 212.477 161.371 213.661 162.075 215.112L159.803 216.584C159.355 215.624 158.779 214.867 158.075 214.312C157.392 213.736 156.645 213.331 155.835 213.096C155.045 212.861 154.267 212.744 153.499 212.744C152.24 212.744 151.12 213 150.139 213.512C149.179 214.024 148.368 214.707 147.707 215.56C147.045 216.413 146.544 217.373 146.203 218.44C145.883 219.485 145.723 220.541 145.723 221.608C145.723 222.781 145.915 223.912 146.299 225C146.704 226.088 147.259 227.048 147.963 227.88C148.667 228.712 149.499 229.373 150.459 229.864C151.419 230.355 152.464 230.6 153.595 230.6C154.384 230.6 155.195 230.461 156.027 230.184C156.859 229.907 157.637 229.48 158.363 228.904C159.088 228.307 159.664 227.539 160.091 226.6L162.491 227.912C162.021 229.043 161.296 230.003 160.315 230.792C159.333 231.581 158.235 232.179 157.019 232.584C155.824 232.989 154.64 233.192 153.467 233.192C151.909 233.192 150.48 232.861 149.179 232.2C147.877 231.517 146.747 230.621 145.786 229.512C144.848 228.381 144.112 227.123 143.579 225.736C143.067 224.328 142.811 222.909 142.811 221.48ZM166.095 233V210.28H175.823C176.826 210.28 177.743 210.493 178.575 210.92C179.407 211.325 180.132 211.88 180.751 212.584C181.37 213.267 181.85 214.045 182.191 214.92C182.532 215.773 182.703 216.648 182.703 217.544C182.703 218.589 182.5 219.581 182.095 220.52C181.711 221.459 181.156 222.259 180.431 222.92C179.727 223.581 178.895 224.04 177.935 224.296L183.439 233H180.175L174.991 224.84H168.975V233H166.095ZM168.975 222.28H175.855C176.644 222.28 177.327 222.067 177.903 221.64C178.5 221.192 178.959 220.605 179.279 219.88C179.62 219.155 179.791 218.376 179.791 217.544C179.791 216.691 179.599 215.912 179.215 215.208C178.831 214.483 178.33 213.907 177.711 213.48C177.092 213.053 176.41 212.84 175.663 212.84H168.975V222.28ZM187.126 233V210.28H190.006V233H187.126ZM195.439 233V210.28H204.911C205.913 210.28 206.831 210.493 207.663 210.92C208.495 211.325 209.22 211.88 209.839 212.584C210.457 213.267 210.937 214.045 211.279 214.92C211.62 215.773 211.791 216.648 211.791 217.544C211.791 218.781 211.513 219.965 210.959 221.096C210.404 222.205 209.625 223.112 208.623 223.816C207.62 224.499 206.447 224.84 205.103 224.84H198.319V233H195.439ZM198.319 222.28H204.943C205.732 222.28 206.415 222.067 206.991 221.64C207.588 221.213 208.047 220.637 208.367 219.912C208.708 219.187 208.879 218.397 208.879 217.544C208.879 216.648 208.687 215.848 208.303 215.144C207.919 214.419 207.417 213.853 206.799 213.448C206.18 213.043 205.497 212.84 204.751 212.84H198.319V222.28ZM231.76 212.84H223.92V233H221.04V212.84H213.2V210.28H231.76V212.84Z" fill="white"/>
<path d="M94.6 294.592V312H91.72V289.28H94.152L108.04 307.04V289.312H110.92V312H108.296L94.6 294.592ZM125.561 312.16C123.961 312.16 122.51 311.84 121.209 311.2C119.908 310.56 118.777 309.696 117.817 308.608C116.878 307.499 116.153 306.261 115.641 304.896C115.129 303.509 114.873 302.091 114.873 300.64C114.873 299.125 115.14 297.685 115.673 296.32C116.228 294.933 116.985 293.707 117.945 292.64C118.926 291.552 120.068 290.699 121.369 290.08C122.67 289.44 124.089 289.12 125.625 289.12C127.225 289.12 128.676 289.451 129.977 290.112C131.278 290.773 132.398 291.659 133.337 292.768C134.276 293.877 135.001 295.115 135.513 296.48C136.025 297.845 136.281 299.243 136.281 300.672C136.281 302.187 136.014 303.637 135.481 305.024C134.948 306.389 134.19 307.616 133.209 308.704C132.249 309.771 131.118 310.613 129.817 311.232C128.516 311.851 127.097 312.16 125.561 312.16ZM117.785 300.64C117.785 301.792 117.966 302.912 118.329 304C118.713 305.067 119.246 306.016 119.929 306.848C120.612 307.68 121.433 308.341 122.393 308.832C123.353 309.323 124.42 309.568 125.593 309.568C126.809 309.568 127.897 309.312 128.857 308.8C129.817 308.288 130.628 307.605 131.289 306.752C131.972 305.899 132.484 304.939 132.825 303.872C133.188 302.805 133.369 301.728 133.369 300.64C133.369 299.488 133.177 298.379 132.793 297.312C132.43 296.245 131.897 295.296 131.193 294.464C130.51 293.611 129.689 292.949 128.729 292.48C127.79 291.989 126.745 291.744 125.593 291.744C124.377 291.744 123.289 292 122.329 292.512C121.369 293.003 120.548 293.675 119.865 294.528C119.204 295.381 118.692 296.341 118.329 297.408C117.966 298.453 117.785 299.531 117.785 300.64ZM140.283 312V289.28H148.155C150.587 289.28 152.613 289.792 154.235 290.816C155.877 291.819 157.104 293.184 157.915 294.912C158.725 296.619 159.131 298.517 159.131 300.608C159.131 302.912 158.683 304.917 157.787 306.624C156.891 308.331 155.621 309.653 153.979 310.592C152.336 311.531 150.395 312 148.155 312H140.283ZM156.219 300.608C156.219 298.901 155.899 297.387 155.259 296.064C154.64 294.741 153.733 293.707 152.539 292.96C151.344 292.213 149.883 291.84 148.155 291.84H143.163V309.44H148.155C149.904 309.44 151.376 309.056 152.571 308.288C153.765 307.499 154.672 306.443 155.291 305.12C155.909 303.776 156.219 302.272 156.219 300.608ZM178.613 309.44V312H163.189V289.28H178.325V291.84H166.069V299.2H176.725V301.6H166.069V309.44H178.613ZM181.892 312V308.416H184.26V312H181.892ZM187.433 308.608C187.838 308.885 188.393 309.152 189.097 309.408C189.822 309.643 190.675 309.76 191.657 309.76C192.659 309.76 193.481 309.6 194.121 309.28C194.761 308.939 195.251 308.437 195.593 307.776C195.934 307.093 196.169 306.229 196.297 305.184C196.425 304.139 196.489 302.901 196.489 301.472V289.28H199.369V300.832C199.369 302.517 199.283 304.064 199.113 305.472C198.942 306.88 198.601 308.107 198.089 309.152C197.577 310.176 196.809 310.965 195.785 311.52C194.782 312.075 193.438 312.352 191.753 312.352C190.686 312.352 189.747 312.235 188.937 312C188.126 311.765 187.379 311.413 186.697 310.944L187.433 308.608ZM217.908 294.048C217.652 293.749 217.31 293.461 216.884 293.184C216.457 292.907 215.977 292.661 215.444 292.448C214.91 292.213 214.324 292.032 213.684 291.904C213.065 291.755 212.414 291.68 211.732 291.68C209.982 291.68 208.692 292.011 207.86 292.672C207.028 293.333 206.612 294.24 206.612 295.392C206.612 296.203 206.825 296.843 207.252 297.312C207.678 297.781 208.329 298.165 209.204 298.464C210.1 298.763 211.23 299.072 212.596 299.392C214.174 299.733 215.54 300.149 216.692 300.64C217.844 301.131 218.729 301.792 219.348 302.624C219.966 303.435 220.276 304.523 220.276 305.888C220.276 306.976 220.062 307.925 219.636 308.736C219.23 309.525 218.654 310.187 217.908 310.72C217.161 311.232 216.286 311.616 215.284 311.872C214.281 312.107 213.193 312.224 212.02 312.224C210.868 312.224 209.737 312.107 208.628 311.872C207.54 311.616 206.505 311.253 205.524 310.784C204.542 310.315 203.625 309.728 202.772 309.024L204.148 306.592C204.489 306.955 204.926 307.317 205.46 307.68C206.014 308.021 206.633 308.341 207.316 308.64C208.02 308.939 208.777 309.184 209.588 309.376C210.398 309.547 211.23 309.632 212.084 309.632C213.705 309.632 214.964 309.344 215.86 308.768C216.756 308.171 217.204 307.307 217.204 306.176C217.204 305.323 216.948 304.64 216.436 304.128C215.945 303.616 215.209 303.189 214.228 302.848C213.246 302.507 212.052 302.165 210.644 301.824C209.108 301.44 207.817 301.024 206.772 300.576C205.726 300.107 204.937 299.499 204.404 298.752C203.892 298.005 203.636 297.035 203.636 295.84C203.636 294.389 203.988 293.163 204.692 292.16C205.396 291.157 206.366 290.4 207.604 289.888C208.841 289.376 210.238 289.12 211.796 289.12C212.82 289.12 213.769 289.227 214.644 289.44C215.54 289.653 216.372 289.952 217.14 290.336C217.908 290.72 218.612 291.179 219.252 291.712L217.908 294.048Z" fill="white"/>
<path d="M118.144 387.44V390H102.72V367.28H117.856V369.84H105.6V377.2H116.256V379.6H105.6V387.44H118.144ZM122.735 367.28L129.583 376.688L136.431 367.28H139.663L131.183 378.8L139.407 390H136.175L129.583 380.912L122.991 390H119.727L127.951 378.8L119.471 367.28H122.735ZM142.47 390V367.28H151.942C152.945 367.28 153.862 367.493 154.694 367.92C155.526 368.325 156.251 368.88 156.87 369.584C157.489 370.267 157.969 371.045 158.31 371.92C158.651 372.773 158.822 373.648 158.822 374.544C158.822 375.781 158.545 376.965 157.99 378.096C157.435 379.205 156.657 380.112 155.654 380.816C154.651 381.499 153.478 381.84 152.134 381.84H145.35V390H142.47ZM145.35 379.28H151.974C152.763 379.28 153.446 379.067 154.022 378.64C154.619 378.213 155.078 377.637 155.398 376.912C155.739 376.187 155.91 375.397 155.91 374.544C155.91 373.648 155.718 372.848 155.334 372.144C154.95 371.419 154.449 370.853 153.83 370.448C153.211 370.043 152.529 369.84 151.782 369.84H145.35V379.28ZM162.408 390V367.28H172.136C173.138 367.28 174.056 367.493 174.888 367.92C175.72 368.325 176.445 368.88 177.064 369.584C177.682 370.267 178.162 371.045 178.503 371.92C178.845 372.773 179.016 373.648 179.016 374.544C179.016 375.589 178.813 376.581 178.408 377.52C178.024 378.459 177.469 379.259 176.744 379.92C176.04 380.581 175.208 381.04 174.248 381.296L179.752 390H176.488L171.304 381.84H165.288V390H162.408ZM165.288 379.28H172.168C172.957 379.28 173.64 379.067 174.216 378.64C174.813 378.192 175.272 377.605 175.592 376.88C175.933 376.155 176.104 375.376 176.104 374.544C176.104 373.691 175.912 372.912 175.528 372.208C175.144 371.483 174.642 370.907 174.024 370.48C173.405 370.053 172.722 369.84 171.976 369.84H165.288V379.28ZM198.863 387.44V390H183.439V367.28H198.575V369.84H186.319V377.2H196.975V379.6H186.319V387.44H198.863ZM216.158 372.048C215.902 371.749 215.56 371.461 215.134 371.184C214.707 370.907 214.227 370.661 213.694 370.448C213.16 370.213 212.574 370.032 211.934 369.904C211.315 369.755 210.664 369.68 209.982 369.68C208.232 369.68 206.942 370.011 206.11 370.672C205.278 371.333 204.862 372.24 204.862 373.392C204.862 374.203 205.075 374.843 205.502 375.312C205.928 375.781 206.579 376.165 207.454 376.464C208.35 376.763 209.48 377.072 210.846 377.392C212.424 377.733 213.79 378.149 214.942 378.64C216.094 379.131 216.979 379.792 217.598 380.624C218.216 381.435 218.526 382.523 218.526 383.888C218.526 384.976 218.312 385.925 217.886 386.736C217.48 387.525 216.904 388.187 216.158 388.72C215.411 389.232 214.536 389.616 213.534 389.872C212.531 390.107 211.443 390.224 210.27 390.224C209.118 390.224 207.987 390.107 206.878 389.872C205.79 389.616 204.755 389.253 203.774 388.784C202.792 388.315 201.875 387.728 201.022 387.024L202.398 384.592C202.739 384.955 203.176 385.317 203.71 385.68C204.264 386.021 204.883 386.341 205.566 386.64C206.27 386.939 207.027 387.184 207.838 387.376C208.648 387.547 209.48 387.632 210.334 387.632C211.955 387.632 213.214 387.344 214.11 386.768C215.006 386.171 215.454 385.307 215.454 384.176C215.454 383.323 215.198 382.64 214.686 382.128C214.195 381.616 213.459 381.189 212.478 380.848C211.496 380.507 210.302 380.165 208.894 379.824C207.358 379.44 206.067 379.024 205.022 378.576C203.976 378.107 203.187 377.499 202.654 376.752C202.142 376.005 201.886 375.035 201.886 373.84C201.886 372.389 202.238 371.163 202.942 370.16C203.646 369.157 204.616 368.4 205.854 367.888C207.091 367.376 208.488 367.12 210.046 367.12C211.07 367.12 212.019 367.227 212.894 367.44C213.79 367.653 214.622 367.952 215.39 368.336C216.158 368.72 216.862 369.179 217.502 369.712L216.158 372.048ZM235.658 372.048C235.402 371.749 235.06 371.461 234.634 371.184C234.207 370.907 233.727 370.661 233.194 370.448C232.66 370.213 232.074 370.032 231.434 369.904C230.815 369.755 230.164 369.68 229.482 369.68C227.732 369.68 226.442 370.011 225.61 370.672C224.778 371.333 224.362 372.24 224.362 373.392C224.362 374.203 224.575 374.843 225.002 375.312C225.428 375.781 226.079 376.165 226.954 376.464C227.85 376.763 228.98 377.072 230.346 377.392C231.924 377.733 233.29 378.149 234.442 378.64C235.594 379.131 236.479 379.792 237.098 380.624C237.716 381.435 238.026 382.523 238.026 383.888C238.026 384.976 237.812 385.925 237.386 386.736C236.98 387.525 236.404 388.187 235.658 388.72C234.911 389.232 234.036 389.616 233.034 389.872C232.031 390.107 230.943 390.224 229.77 390.224C228.618 390.224 227.487 390.107 226.378 389.872C225.29 389.616 224.255 389.253 223.274 388.784C222.292 388.315 221.375 387.728 220.522 387.024L221.898 384.592C222.239 384.955 222.676 385.317 223.21 385.68C223.764 386.021 224.383 386.341 225.066 386.64C225.77 386.939 226.527 387.184 227.338 387.376C228.148 387.547 228.98 387.632 229.834 387.632C231.455 387.632 232.714 387.344 233.61 386.768C234.506 386.171 234.954 385.307 234.954 384.176C234.954 383.323 234.698 382.64 234.186 382.128C233.695 381.616 232.959 381.189 231.978 380.848C230.996 380.507 229.802 380.165 228.394 379.824C226.858 379.44 225.567 379.024 224.522 378.576C223.476 378.107 222.687 377.499 222.154 376.752C221.642 376.005 221.386 375.035 221.386 373.84C221.386 372.389 221.738 371.163 222.442 370.16C223.146 369.157 224.116 368.4 225.354 367.888C226.591 367.376 227.988 367.12 229.546 367.12C230.57 367.12 231.519 367.227 232.394 367.44C233.29 367.653 234.122 367.952 234.89 368.336C235.658 368.72 236.362 369.179 237.002 369.712L235.658 372.048Z" fill="white"/>
<path d="M324.368 520V502.656L316.88 516H315.12L307.6 502.656V520H304.72V497.28H307.76L315.984 512.032L324.24 497.28H327.248V520H324.368ZM341.905 520.16C340.305 520.16 338.854 519.84 337.553 519.2C336.251 518.56 335.121 517.696 334.161 516.608C333.222 515.499 332.497 514.261 331.985 512.896C331.473 511.509 331.217 510.091 331.217 508.64C331.217 507.125 331.483 505.685 332.017 504.32C332.571 502.933 333.329 501.707 334.289 500.64C335.27 499.552 336.411 498.699 337.713 498.08C339.014 497.44 340.433 497.12 341.969 497.12C343.569 497.12 345.019 497.451 346.321 498.112C347.622 498.773 348.742 499.659 349.681 500.768C350.619 501.877 351.345 503.115 351.857 504.48C352.369 505.845 352.625 507.243 352.625 508.672C352.625 510.187 352.358 511.637 351.825 513.024C351.291 514.389 350.534 515.616 349.553 516.704C348.593 517.771 347.462 518.613 346.161 519.232C344.859 519.851 343.441 520.16 341.905 520.16ZM334.129 508.64C334.129 509.792 334.31 510.912 334.673 512C335.057 513.067 335.59 514.016 336.273 514.848C336.955 515.68 337.777 516.341 338.737 516.832C339.697 517.323 340.763 517.568 341.937 517.568C343.153 517.568 344.241 517.312 345.201 516.8C346.161 516.288 346.971 515.605 347.633 514.752C348.315 513.899 348.827 512.939 349.169 511.872C349.531 510.805 349.713 509.728 349.713 508.64C349.713 507.488 349.521 506.379 349.137 505.312C348.774 504.245 348.241 503.296 347.537 502.464C346.854 501.611 346.033 500.949 345.073 500.48C344.134 499.989 343.089 499.744 341.937 499.744C340.721 499.744 339.633 500 338.673 500.512C337.713 501.003 336.891 501.675 336.209 502.528C335.547 503.381 335.035 504.341 334.673 505.408C334.31 506.453 334.129 507.531 334.129 508.64ZM359.506 502.592V520H356.626V497.28H359.058L372.946 515.04V497.312H375.826V520H373.202L359.506 502.592ZM390.371 520.16C388.878 520.16 387.481 519.84 386.179 519.2C384.899 518.539 383.779 517.664 382.819 516.576C381.859 515.467 381.113 514.229 380.579 512.864C380.046 511.477 379.779 510.048 379.779 508.576C379.779 507.04 380.046 505.589 380.579 504.224C381.113 502.837 381.849 501.611 382.787 500.544C383.747 499.477 384.867 498.645 386.147 498.048C387.449 497.429 388.857 497.12 390.371 497.12C392.569 497.12 394.382 497.579 395.811 498.496C397.241 499.413 398.318 500.608 399.043 502.08L396.835 503.616C396.174 502.293 395.267 501.312 394.115 500.672C392.963 500.032 391.694 499.712 390.307 499.712C389.155 499.712 388.11 499.957 387.171 500.448C386.233 500.939 385.422 501.611 384.739 502.464C384.078 503.296 383.566 504.245 383.203 505.312C382.862 506.379 382.691 507.488 382.691 508.64C382.691 509.856 382.883 511.008 383.267 512.096C383.673 513.163 384.238 514.112 384.963 514.944C385.689 515.755 386.531 516.395 387.491 516.864C388.451 517.333 389.486 517.568 390.595 517.568C391.897 517.568 393.134 517.237 394.307 516.576C395.481 515.915 396.59 514.901 397.635 513.536V516.512C395.587 518.944 393.166 520.16 390.371 520.16ZM397.283 510.848H392.387V508.672H399.715V520H397.283V510.848ZM413.311 520.16C411.711 520.16 410.26 519.84 408.959 519.2C407.658 518.56 406.527 517.696 405.567 516.608C404.628 515.499 403.903 514.261 403.391 512.896C402.879 511.509 402.623 510.091 402.623 508.64C402.623 507.125 402.89 505.685 403.423 504.32C403.978 502.933 404.735 501.707 405.695 500.64C406.676 499.552 407.818 498.699 409.119 498.08C410.42 497.44 411.839 497.12 413.375 497.12C414.975 497.12 416.426 497.451 417.727 498.112C419.028 498.773 420.148 499.659 421.087 500.768C422.026 501.877 422.751 503.115 423.263 504.48C423.775 505.845 424.031 507.243 424.031 508.672C424.031 510.187 423.764 511.637 423.231 513.024C422.698 514.389 421.94 515.616 420.959 516.704C419.999 517.771 418.868 518.613 417.567 519.232C416.266 519.851 414.847 520.16 413.311 520.16ZM405.535 508.64C405.535 509.792 405.716 510.912 406.079 512C406.463 513.067 406.996 514.016 407.679 514.848C408.362 515.68 409.183 516.341 410.143 516.832C411.103 517.323 412.17 517.568 413.343 517.568C414.559 517.568 415.647 517.312 416.607 516.8C417.567 516.288 418.378 515.605 419.039 514.752C419.722 513.899 420.234 512.939 420.575 511.872C420.938 510.805 421.119 509.728 421.119 508.64C421.119 507.488 420.927 506.379 420.543 505.312C420.18 504.245 419.647 503.296 418.943 502.464C418.26 501.611 417.439 500.949 416.479 500.48C415.54 499.989 414.495 499.744 413.343 499.744C412.127 499.744 411.039 500 410.079 500.512C409.119 501.003 408.298 501.675 407.615 502.528C406.954 503.381 406.442 504.341 406.079 505.408C405.716 506.453 405.535 507.531 405.535 508.64ZM428.033 520V497.28H435.905C438.337 497.28 440.363 497.792 441.985 498.816C443.627 499.819 444.854 501.184 445.665 502.912C446.475 504.619 446.881 506.517 446.881 508.608C446.881 510.912 446.433 512.917 445.537 514.624C444.641 516.331 443.371 517.653 441.729 518.592C440.086 519.531 438.145 520 435.905 520H428.033ZM443.969 508.608C443.969 506.901 443.649 505.387 443.009 504.064C442.39 502.741 441.483 501.707 440.289 500.96C439.094 500.213 437.633 499.84 435.905 499.84H430.913V517.44H435.905C437.654 517.44 439.126 517.056 440.321 516.288C441.515 515.499 442.422 514.443 443.041 513.12C443.659 511.776 443.969 510.272 443.969 508.608ZM468.379 514.144C468.379 515.317 468.08 516.341 467.483 517.216C466.885 518.091 466.075 518.773 465.051 519.264C464.048 519.755 462.939 520 461.723 520H450.939V497.28H462.235C463.301 497.28 464.219 497.568 464.987 498.144C465.776 498.699 466.373 499.424 466.779 500.32C467.205 501.195 467.419 502.112 467.419 503.072C467.419 504.181 467.131 505.227 466.555 506.208C466 507.168 465.2 507.883 464.155 508.352C465.456 508.736 466.48 509.451 467.227 510.496C467.995 511.52 468.379 512.736 468.379 514.144ZM465.467 513.632C465.467 512.928 465.307 512.277 464.987 511.68C464.688 511.083 464.272 510.603 463.739 510.24C463.227 509.877 462.629 509.696 461.947 509.696H453.819V517.504H461.723C462.427 517.504 463.056 517.323 463.611 516.96C464.187 516.597 464.635 516.128 464.955 515.552C465.296 514.955 465.467 514.315 465.467 513.632ZM453.819 499.776V507.36H461.051C461.733 507.36 462.331 507.189 462.843 506.848C463.376 506.507 463.792 506.048 464.091 505.472C464.411 504.896 464.571 504.267 464.571 503.584C464.571 502.859 464.421 502.219 464.123 501.664C463.845 501.088 463.451 500.629 462.939 500.288C462.448 499.947 461.883 499.776 461.243 499.776H453.819Z" fill="white"/>
<path d="M68.368 562V544.656L60.88 558H59.12L51.6 544.656V562H48.72V539.28H51.76L59.984 554.032L68.24 539.28H71.248V562H68.368ZM85.9048 562.16C84.3048 562.16 82.8541 561.84 81.5528 561.2C80.2514 560.56 79.1208 559.696 78.1608 558.608C77.2221 557.499 76.4968 556.261 75.9848 554.896C75.4728 553.509 75.2168 552.091 75.2168 550.64C75.2168 549.125 75.4834 547.685 76.0168 546.32C76.5714 544.933 77.3288 543.707 78.2888 542.64C79.2701 541.552 80.4114 540.699 81.7128 540.08C83.0141 539.44 84.4328 539.12 85.9688 539.12C87.5688 539.12 89.0194 539.451 90.3208 540.112C91.6221 540.773 92.7421 541.659 93.6808 542.768C94.6194 543.877 95.3448 545.115 95.8568 546.48C96.3688 547.845 96.6248 549.243 96.6248 550.672C96.6248 552.187 96.3581 553.637 95.8248 555.024C95.2914 556.389 94.5341 557.616 93.5528 558.704C92.5928 559.771 91.4621 560.613 90.1608 561.232C88.8594 561.851 87.4408 562.16 85.9048 562.16ZM78.1288 550.64C78.1288 551.792 78.3101 552.912 78.6727 554C79.0568 555.067 79.5901 556.016 80.2728 556.848C80.9554 557.68 81.7768 558.341 82.7368 558.832C83.6968 559.323 84.7634 559.568 85.9368 559.568C87.1528 559.568 88.2408 559.312 89.2008 558.8C90.1608 558.288 90.9714 557.605 91.6328 556.752C92.3154 555.899 92.8274 554.939 93.1688 553.872C93.5314 552.805 93.7128 551.728 93.7128 550.64C93.7128 549.488 93.5208 548.379 93.1368 547.312C92.7741 546.245 92.2408 545.296 91.5368 544.464C90.8541 543.611 90.0328 542.949 89.0728 542.48C88.1341 541.989 87.0888 541.744 85.9368 541.744C84.7208 541.744 83.6328 542 82.6728 542.512C81.7128 543.003 80.8914 543.675 80.2088 544.528C79.5474 545.381 79.0354 546.341 78.6727 547.408C78.3101 548.453 78.1288 549.531 78.1288 550.64ZM103.506 544.592V562H100.626V539.28H103.058L116.946 557.04V539.312H119.826V562H117.202L103.506 544.592ZM134.371 562.16C132.878 562.16 131.481 561.84 130.179 561.2C128.899 560.539 127.779 559.664 126.819 558.576C125.859 557.467 125.113 556.229 124.579 554.864C124.046 553.477 123.779 552.048 123.779 550.576C123.779 549.04 124.046 547.589 124.579 546.224C125.113 544.837 125.849 543.611 126.787 542.544C127.747 541.477 128.867 540.645 130.147 540.048C131.449 539.429 132.857 539.12 134.371 539.12C136.569 539.12 138.382 539.579 139.811 540.496C141.241 541.413 142.318 542.608 143.043 544.08L140.835 545.616C140.174 544.293 139.267 543.312 138.115 542.672C136.963 542.032 135.694 541.712 134.307 541.712C133.155 541.712 132.11 541.957 131.171 542.448C130.233 542.939 129.422 543.611 128.739 544.464C128.078 545.296 127.566 546.245 127.203 547.312C126.862 548.379 126.691 549.488 126.691 550.64C126.691 551.856 126.883 553.008 127.267 554.096C127.673 555.163 128.238 556.112 128.963 556.944C129.689 557.755 130.531 558.395 131.491 558.864C132.451 559.333 133.486 559.568 134.595 559.568C135.897 559.568 137.134 559.237 138.307 558.576C139.481 557.915 140.59 556.901 141.635 555.536V558.512C139.587 560.944 137.166 562.16 134.371 562.16ZM141.283 552.848H136.387V550.672H143.715V562H141.283V552.848ZM157.311 562.16C155.711 562.16 154.26 561.84 152.959 561.2C151.658 560.56 150.527 559.696 149.567 558.608C148.628 557.499 147.903 556.261 147.391 554.896C146.879 553.509 146.623 552.091 146.623 550.64C146.623 549.125 146.89 547.685 147.423 546.32C147.978 544.933 148.735 543.707 149.695 542.64C150.676 541.552 151.818 540.699 153.119 540.08C154.42 539.44 155.839 539.12 157.375 539.12C158.975 539.12 160.426 539.451 161.727 540.112C163.028 540.773 164.148 541.659 165.087 542.768C166.026 543.877 166.751 545.115 167.263 546.48C167.775 547.845 168.031 549.243 168.031 550.672C168.031 552.187 167.764 553.637 167.231 555.024C166.698 556.389 165.94 557.616 164.959 558.704C163.999 559.771 162.868 560.613 161.567 561.232C160.266 561.851 158.847 562.16 157.311 562.16ZM149.535 550.64C149.535 551.792 149.716 552.912 150.079 554C150.463 555.067 150.996 556.016 151.679 556.848C152.362 557.68 153.183 558.341 154.143 558.832C155.103 559.323 156.17 559.568 157.343 559.568C158.559 559.568 159.647 559.312 160.607 558.8C161.567 558.288 162.378 557.605 163.039 556.752C163.722 555.899 164.234 554.939 164.575 553.872C164.938 552.805 165.119 551.728 165.119 550.64C165.119 549.488 164.927 548.379 164.543 547.312C164.18 546.245 163.647 545.296 162.943 544.464C162.26 543.611 161.439 542.949 160.479 542.48C159.54 541.989 158.495 541.744 157.343 541.744C156.127 541.744 155.039 542 154.079 542.512C153.119 543.003 152.298 543.675 151.615 544.528C150.954 545.381 150.442 546.341 150.079 547.408C149.716 548.453 149.535 549.531 149.535 550.64ZM181.249 562.16C179.649 562.16 178.198 561.84 176.897 561.2C175.595 560.56 174.465 559.696 173.505 558.608C172.566 557.499 171.841 556.261 171.329 554.896C170.817 553.509 170.561 552.091 170.561 550.64C170.561 549.125 170.827 547.685 171.361 546.32C171.915 544.933 172.673 543.707 173.633 542.64C174.614 541.552 175.755 540.699 177.057 540.08C178.358 539.44 179.777 539.12 181.313 539.12C182.913 539.12 184.363 539.451 185.665 540.112C186.966 540.773 188.086 541.659 189.025 542.768C189.963 543.877 190.689 545.115 191.201 546.48C191.713 547.845 191.969 549.243 191.969 550.672C191.969 552.187 191.702 553.637 191.169 555.024C190.635 556.389 189.878 557.616 188.897 558.704C187.937 559.771 186.806 560.613 185.505 561.232C184.203 561.851 182.785 562.16 181.249 562.16ZM173.473 550.64C173.473 551.792 173.654 552.912 174.016 554C174.401 555.067 174.934 556.016 175.617 556.848C176.299 557.68 177.121 558.341 178.081 558.832C179.041 559.323 180.107 559.568 181.281 559.568C182.497 559.568 183.585 559.312 184.545 558.8C185.505 558.288 186.315 557.605 186.977 556.752C187.659 555.899 188.171 554.939 188.513 553.872C188.875 552.805 189.057 551.728 189.057 550.64C189.057 549.488 188.865 548.379 188.481 547.312C188.118 546.245 187.585 545.296 186.881 544.464C186.198 543.611 185.377 542.949 184.417 542.48C183.478 541.989 182.433 541.744 181.281 541.744C180.065 541.744 178.977 542 178.017 542.512C177.057 543.003 176.235 543.675 175.553 544.528C174.891 545.381 174.379 546.341 174.016 547.408C173.654 548.453 173.473 549.531 173.473 550.64ZM209.314 544.048C209.058 543.749 208.717 543.461 208.29 543.184C207.863 542.907 207.383 542.661 206.85 542.448C206.317 542.213 205.73 542.032 205.09 541.904C204.471 541.755 203.821 541.68 203.138 541.68C201.389 541.68 200.098 542.011 199.266 542.672C198.434 543.333 198.018 544.24 198.018 545.392C198.018 546.203 198.231 546.843 198.658 547.312C199.085 547.781 199.735 548.165 200.61 548.464C201.506 548.763 202.637 549.072 204.002 549.392C205.581 549.733 206.946 550.149 208.098 550.64C209.25 551.131 210.135 551.792 210.754 552.624C211.373 553.435 211.682 554.523 211.682 555.888C211.682 556.976 211.469 557.925 211.042 558.736C210.637 559.525 210.061 560.187 209.314 560.72C208.567 561.232 207.693 561.616 206.69 561.872C205.687 562.107 204.599 562.224 203.426 562.224C202.274 562.224 201.143 562.107 200.034 561.872C198.946 561.616 197.911 561.253 196.93 560.784C195.949 560.315 195.031 559.728 194.178 559.024L195.554 556.592C195.895 556.955 196.333 557.317 196.866 557.68C197.421 558.021 198.039 558.341 198.722 558.64C199.426 558.939 200.183 559.184 200.994 559.376C201.805 559.547 202.637 559.632 203.49 559.632C205.111 559.632 206.37 559.344 207.266 558.768C208.162 558.171 208.61 557.307 208.61 556.176C208.61 555.323 208.354 554.64 207.842 554.128C207.351 553.616 206.615 553.189 205.634 552.848C204.653 552.507 203.458 552.165 202.05 551.824C200.514 551.44 199.223 551.024 198.178 550.576C197.133 550.107 196.343 549.499 195.81 548.752C195.298 548.005 195.042 547.035 195.042 545.84C195.042 544.389 195.394 543.163 196.098 542.16C196.802 541.157 197.773 540.4 199.01 539.888C200.247 539.376 201.645 539.12 203.202 539.12C204.226 539.12 205.175 539.227 206.05 539.44C206.946 539.653 207.778 539.952 208.546 540.336C209.314 540.72 210.018 541.179 210.658 541.712L209.314 544.048ZM230.894 559.44V562H215.47V539.28H230.606V541.84H218.35V549.2H229.006V551.6H218.35V559.44H230.894Z" fill="white"/>
<path d="M308.064 576.048C307.808 575.749 307.467 575.461 307.04 575.184C306.613 574.907 306.133 574.661 305.6 574.448C305.067 574.213 304.48 574.032 303.84 573.904C303.221 573.755 302.571 573.68 301.888 573.68C300.139 573.68 298.848 574.011 298.016 574.672C297.184 575.333 296.768 576.24 296.768 577.392C296.768 578.203 296.981 578.843 297.408 579.312C297.835 579.781 298.485 580.165 299.36 580.464C300.256 580.763 301.387 581.072 302.752 581.392C304.331 581.733 305.696 582.149 306.848 582.64C308 583.131 308.885 583.792 309.504 584.624C310.123 585.435 310.432 586.523 310.432 587.888C310.432 588.976 310.219 589.925 309.792 590.736C309.387 591.525 308.811 592.187 308.064 592.72C307.317 593.232 306.443 593.616 305.44 593.872C304.437 594.107 303.349 594.224 302.176 594.224C301.024 594.224 299.893 594.107 298.784 593.872C297.696 593.616 296.661 593.253 295.68 592.784C294.699 592.315 293.781 591.728 292.928 591.024L294.304 588.592C294.645 588.955 295.083 589.317 295.616 589.68C296.171 590.021 296.789 590.341 297.472 590.64C298.176 590.939 298.933 591.184 299.744 591.376C300.555 591.547 301.387 591.632 302.24 591.632C303.861 591.632 305.12 591.344 306.016 590.768C306.912 590.171 307.36 589.307 307.36 588.176C307.36 587.323 307.104 586.64 306.592 586.128C306.101 585.616 305.365 585.189 304.384 584.848C303.403 584.507 302.208 584.165 300.8 583.824C299.264 583.44 297.973 583.024 296.928 582.576C295.883 582.107 295.093 581.499 294.56 580.752C294.048 580.005 293.792 579.035 293.792 577.84C293.792 576.389 294.144 575.163 294.848 574.16C295.552 573.157 296.523 572.4 297.76 571.888C298.997 571.376 300.395 571.12 301.952 571.12C302.976 571.12 303.925 571.227 304.8 571.44C305.696 571.653 306.528 571.952 307.296 572.336C308.064 572.72 308.768 573.179 309.408 573.712L308.064 576.048ZM323.436 594.16C321.836 594.16 320.385 593.84 319.084 593.2C317.783 592.539 316.652 591.664 315.692 590.576C314.753 589.488 314.028 588.261 313.516 586.896C313.004 585.509 312.748 584.091 312.748 582.64C312.748 581.125 313.015 579.685 313.548 578.32C314.103 576.933 314.86 575.707 315.82 574.64C316.801 573.552 317.943 572.699 319.244 572.08C320.545 571.44 321.964 571.12 323.5 571.12C325.1 571.12 326.551 571.451 327.852 572.112C329.153 572.773 330.273 573.659 331.212 574.768C332.151 575.877 332.876 577.115 333.388 578.48C333.9 579.845 334.156 581.243 334.156 582.672C334.156 584.187 333.889 585.637 333.356 587.024C332.823 588.389 332.065 589.616 331.084 590.704C330.124 591.771 328.993 592.613 327.692 593.232C326.391 593.851 324.972 594.16 323.436 594.16ZM323.468 591.568C324.684 591.568 325.772 591.312 326.732 590.8C327.692 590.288 328.503 589.605 329.164 588.752C329.847 587.899 330.359 586.939 330.7 585.872C331.063 584.805 331.244 583.728 331.244 582.64C331.244 581.488 331.052 580.379 330.668 579.312C330.305 578.224 329.772 577.264 329.068 576.432C328.385 575.6 327.564 574.939 326.604 574.448C325.665 573.957 324.62 573.712 323.468 573.712C322.252 573.712 321.164 573.968 320.204 574.48C319.244 574.992 318.423 575.675 317.74 576.528C317.079 577.381 316.567 578.341 316.204 579.408C315.841 580.453 315.66 581.531 315.66 582.64C315.66 583.792 315.841 584.912 316.204 586C316.588 587.067 317.121 588.016 317.804 588.848C318.487 589.68 319.308 590.341 320.268 590.832C321.228 591.323 322.295 591.568 323.468 591.568ZM324.748 586.576H327.564L333.932 594H331.116L324.748 586.576ZM338.095 594V571.28H340.975V591.44H353.647V594H338.095Z" fill="white"/>
<path d="M195.064 454.048C194.808 453.749 194.467 453.461 194.04 453.184C193.613 452.907 193.133 452.661 192.6 452.448C192.067 452.213 191.48 452.032 190.84 451.904C190.221 451.755 189.571 451.68 188.888 451.68C187.139 451.68 185.848 452.011 185.016 452.672C184.184 453.333 183.768 454.24 183.768 455.392C183.768 456.203 183.981 456.843 184.408 457.312C184.835 457.781 185.485 458.165 186.36 458.464C187.256 458.763 188.387 459.072 189.752 459.392C191.331 459.733 192.696 460.149 193.848 460.64C195 461.131 195.885 461.792 196.504 462.624C197.123 463.435 197.432 464.523 197.432 465.888C197.432 466.976 197.219 467.925 196.792 468.736C196.387 469.525 195.811 470.187 195.064 470.72C194.317 471.232 193.443 471.616 192.44 471.872C191.437 472.107 190.349 472.224 189.176 472.224C188.024 472.224 186.893 472.107 185.784 471.872C184.696 471.616 183.661 471.253 182.68 470.784C181.699 470.315 180.781 469.728 179.928 469.024L181.304 466.592C181.645 466.955 182.083 467.317 182.616 467.68C183.171 468.021 183.789 468.341 184.472 468.64C185.176 468.939 185.933 469.184 186.744 469.376C187.555 469.547 188.387 469.632 189.24 469.632C190.861 469.632 192.12 469.344 193.016 468.768C193.912 468.171 194.36 467.307 194.36 466.176C194.36 465.323 194.104 464.64 193.592 464.128C193.101 463.616 192.365 463.189 191.384 462.848C190.403 462.507 189.208 462.165 187.8 461.824C186.264 461.44 184.973 461.024 183.928 460.576C182.883 460.107 182.093 459.499 181.56 458.752C181.048 458.005 180.792 457.035 180.792 455.84C180.792 454.389 181.144 453.163 181.848 452.16C182.552 451.157 183.523 450.4 184.76 449.888C185.997 449.376 187.395 449.12 188.952 449.12C189.976 449.12 190.925 449.227 191.8 449.44C192.696 449.653 193.528 449.952 194.296 450.336C195.064 450.72 195.768 451.179 196.408 451.712L195.064 454.048ZM207.695 449.28H210.127L219.407 472H216.335L213.647 465.344H204.111L201.455 472H198.383L207.695 449.28ZM213.007 463.104L208.911 452.608L204.687 463.104H213.007ZM235.47 454.048C235.214 453.749 234.873 453.461 234.446 453.184C234.02 452.907 233.54 452.661 233.006 452.448C232.473 452.213 231.886 452.032 231.246 451.904C230.628 451.755 229.977 451.68 229.294 451.68C227.545 451.68 226.254 452.011 225.422 452.672C224.59 453.333 224.174 454.24 224.174 455.392C224.174 456.203 224.388 456.843 224.814 457.312C225.241 457.781 225.892 458.165 226.766 458.464C227.662 458.763 228.793 459.072 230.158 459.392C231.737 459.733 233.102 460.149 234.254 460.64C235.406 461.131 236.292 461.792 236.91 462.624C237.529 463.435 237.838 464.523 237.838 465.888C237.838 466.976 237.625 467.925 237.198 468.736C236.793 469.525 236.217 470.187 235.47 470.72C234.724 471.232 233.849 471.616 232.846 471.872C231.844 472.107 230.756 472.224 229.582 472.224C228.43 472.224 227.3 472.107 226.19 471.872C225.102 471.616 224.068 471.253 223.086 470.784C222.105 470.315 221.188 469.728 220.334 469.024L221.71 466.592C222.052 466.955 222.489 467.317 223.022 467.68C223.577 468.021 224.196 468.341 224.878 468.64C225.582 468.939 226.34 469.184 227.15 469.376C227.961 469.547 228.793 469.632 229.646 469.632C231.268 469.632 232.526 469.344 233.422 468.768C234.318 468.171 234.766 467.307 234.766 466.176C234.766 465.323 234.51 464.64 233.998 464.128C233.508 463.616 232.772 463.189 231.79 462.848C230.809 462.507 229.614 462.165 228.206 461.824C226.67 461.44 225.38 461.024 224.334 460.576C223.289 460.107 222.5 459.499 221.966 458.752C221.454 458.005 221.198 457.035 221.198 455.84C221.198 454.389 221.55 453.163 222.254 452.16C222.958 451.157 223.929 450.4 225.166 449.888C226.404 449.376 227.801 449.12 229.358 449.12C230.382 449.12 231.332 449.227 232.206 449.44C233.102 449.653 233.934 449.952 234.702 450.336C235.47 450.72 236.174 451.179 236.814 451.712L235.47 454.048ZM254.97 454.048C254.714 453.749 254.373 453.461 253.946 453.184C253.52 452.907 253.04 452.661 252.506 452.448C251.973 452.213 251.386 452.032 250.746 451.904C250.128 451.755 249.477 451.68 248.794 451.68C247.045 451.68 245.754 452.011 244.922 452.672C244.09 453.333 243.674 454.24 243.674 455.392C243.674 456.203 243.888 456.843 244.314 457.312C244.741 457.781 245.392 458.165 246.266 458.464C247.162 458.763 248.293 459.072 249.658 459.392C251.237 459.733 252.602 460.149 253.754 460.64C254.906 461.131 255.792 461.792 256.41 462.624C257.029 463.435 257.338 464.523 257.338 465.888C257.338 466.976 257.125 467.925 256.698 468.736C256.293 469.525 255.717 470.187 254.97 470.72C254.224 471.232 253.349 471.616 252.346 471.872C251.344 472.107 250.256 472.224 249.082 472.224C247.93 472.224 246.8 472.107 245.69 471.872C244.602 471.616 243.568 471.253 242.586 470.784C241.605 470.315 240.688 469.728 239.834 469.024L241.21 466.592C241.552 466.955 241.989 467.317 242.522 467.68C243.077 468.021 243.696 468.341 244.378 468.64C245.082 468.939 245.84 469.184 246.65 469.376C247.461 469.547 248.293 469.632 249.146 469.632C250.768 469.632 252.026 469.344 252.922 468.768C253.818 468.171 254.266 467.307 254.266 466.176C254.266 465.323 254.01 464.64 253.498 464.128C253.008 463.616 252.272 463.189 251.29 462.848C250.309 462.507 249.114 462.165 247.706 461.824C246.17 461.44 244.88 461.024 243.834 460.576C242.789 460.107 242 459.499 241.466 458.752C240.954 458.005 240.698 457.035 240.698 455.84C240.698 454.389 241.05 453.163 241.754 452.16C242.458 451.157 243.429 450.4 244.666 449.888C245.904 449.376 247.301 449.12 248.858 449.12C249.882 449.12 250.832 449.227 251.706 449.44C252.602 449.653 253.434 449.952 254.202 450.336C254.97 450.72 255.674 451.179 256.314 451.712L254.97 454.048Z" fill="white"/>
<path d="M271.72 344V321.28H281.448C282.451 321.28 283.368 321.493 284.2 321.92C285.032 322.325 285.757 322.88 286.376 323.584C286.995 324.267 287.475 325.045 287.816 325.92C288.157 326.773 288.328 327.648 288.328 328.544C288.328 329.589 288.125 330.581 287.72 331.52C287.336 332.459 286.781 333.259 286.056 333.92C285.352 334.581 284.52 335.04 283.56 335.296L289.064 344H285.8L280.616 335.84H274.6V344H271.72ZM274.6 333.28H281.48C282.269 333.28 282.952 333.067 283.528 332.64C284.125 332.192 284.584 331.605 284.904 330.88C285.245 330.155 285.416 329.376 285.416 328.544C285.416 327.691 285.224 326.912 284.84 326.208C284.456 325.483 283.955 324.907 283.336 324.48C282.717 324.053 282.035 323.84 281.288 323.84H274.6V333.28ZM308.175 341.44V344H292.751V321.28H307.887V323.84H295.631V331.2H306.287V333.6H295.631V341.44H308.175ZM312.126 344V321.28H319.998C322.43 321.28 324.457 321.792 326.078 322.816C327.721 323.819 328.948 325.184 329.758 326.912C330.569 328.619 330.974 330.517 330.974 332.608C330.974 334.912 330.526 336.917 329.63 338.624C328.734 340.331 327.465 341.653 325.822 342.592C324.18 343.531 322.238 344 319.998 344H312.126ZM328.062 332.608C328.062 330.901 327.742 329.387 327.102 328.064C326.484 326.741 325.577 325.707 324.382 324.96C323.188 324.213 321.726 323.84 319.998 323.84H315.006V341.44H319.998C321.748 341.44 323.22 341.056 324.414 340.288C325.609 339.499 326.516 338.443 327.134 337.12C327.753 335.776 328.062 334.272 328.062 332.608ZM344.409 344.16C342.595 344.16 341.07 343.851 339.833 343.232C338.595 342.592 337.603 341.739 336.857 340.672C336.11 339.584 335.566 338.357 335.225 336.992C334.883 335.627 334.713 334.219 334.713 332.768V321.28H337.593V332.768C337.593 333.877 337.699 334.965 337.913 336.032C338.147 337.077 338.521 338.016 339.033 338.848C339.545 339.68 340.238 340.341 341.113 340.832C341.987 341.323 343.075 341.568 344.377 341.568C345.699 341.568 346.798 341.323 347.673 340.832C348.547 340.32 349.241 339.648 349.753 338.816C350.265 337.963 350.627 337.013 350.841 335.968C351.075 334.923 351.193 333.856 351.193 332.768V321.28H354.073V332.768C354.073 334.304 353.891 335.765 353.529 337.152C353.187 338.517 352.633 339.723 351.865 340.768C351.097 341.813 350.094 342.645 348.857 343.264C347.641 343.861 346.158 344.16 344.409 344.16ZM359.829 321.28L366.677 330.688L373.525 321.28H376.757L368.277 332.8L376.501 344H373.269L366.677 334.912L360.085 344H356.821L365.045 332.8L356.565 321.28H359.829Z" fill="white"/>
<path d="M260 661V665" stroke="white" stroke-width="3" stroke-linecap="round"/>
<path d="M260.034 671C260.034 671.36 259.907 672.089 260.146 672.378C260.213 672.458 260.365 672.585 260.403 672.656C260.468 672.779 260.754 673.009 260.766 673.056C260.965 673.808 261.068 674.378 261.55 675.05C261.935 675.587 262.311 676.207 262.893 676.578C263.123 676.724 263.188 677.113 263.488 677.206C263.562 677.228 263.535 677.339 263.539 677.4C263.545 677.511 263.658 677.529 263.723 677.6C263.838 677.725 263.878 677.934 264 678" stroke="white" stroke-width="3" stroke-linecap="round"/>
<path d="M265.976 682C265.976 682.829 266.03 683.628 265.976 684.444C265.957 684.745 265.681 685.035 265.629 685.321C265.572 685.637 265.335 685.941 265.279 686.25C265.228 686.533 264.963 686.819 264.855 687.071C264.747 687.321 264.594 687.541 264.427 687.746C264.269 687.939 264.137 688.18 263.992 688.357C263.778 688.619 263.284 688.884 263 689" stroke="white" stroke-width="3" stroke-linecap="round"/>
<path d="M297.256 665.232L300.392 670H299.112L296.472 666L295.368 667.104V670H294.248V658.16H295.368V665.744L298.6 662.64H299.88L297.256 665.232ZM304.857 662.4C305.795 662.4 306.521 662.64 307.033 663.12C307.545 663.589 307.801 664.256 307.801 665.12C307.801 665.301 307.79 665.488 307.769 665.68C307.747 665.861 307.71 665.995 307.657 666.08H302.265V666.24C302.265 666.645 302.318 667.035 302.424 667.408C302.531 667.781 302.691 668.112 302.905 668.4C303.118 668.688 303.385 668.917 303.705 669.088C304.035 669.259 304.425 669.344 304.873 669.344C305.129 669.344 305.379 669.317 305.625 669.264C305.87 669.2 306.105 669.125 306.329 669.04C306.553 668.944 306.761 668.843 306.953 668.736C307.145 668.629 307.315 668.523 307.465 668.416L307.657 669.328C307.518 669.413 307.347 669.509 307.145 669.616C306.942 669.712 306.718 669.803 306.473 669.888C306.227 669.973 305.955 670.043 305.657 670.096C305.369 670.16 305.065 670.192 304.745 670.192C304.147 670.192 303.619 670.091 303.161 669.888C302.702 669.675 302.318 669.392 302.009 669.04C301.699 668.677 301.465 668.261 301.305 667.792C301.145 667.323 301.065 666.832 301.065 666.32C301.065 665.797 301.145 665.301 301.305 664.832C301.475 664.352 301.721 663.931 302.041 663.568C302.361 663.205 302.755 662.923 303.225 662.72C303.705 662.507 304.249 662.4 304.857 662.4ZM304.809 663.296C304.105 663.296 303.555 663.483 303.161 663.856C302.777 664.219 302.515 664.677 302.377 665.232H306.745C306.755 665.179 306.761 665.131 306.761 665.088C306.761 665.045 306.761 664.997 306.761 664.944C306.761 664.677 306.707 664.443 306.601 664.24C306.494 664.027 306.35 663.851 306.169 663.712C305.987 663.573 305.779 663.472 305.545 663.408C305.31 663.333 305.065 663.296 304.809 663.296ZM313.122 662.4C314.061 662.4 314.786 662.64 315.298 663.12C315.81 663.589 316.066 664.256 316.066 665.12C316.066 665.301 316.055 665.488 316.034 665.68C316.013 665.861 315.975 665.995 315.922 666.08H310.53V666.24C310.53 666.645 310.583 667.035 310.69 667.408C310.797 667.781 310.957 668.112 311.17 668.4C311.383 668.688 311.65 668.917 311.97 669.088C312.301 669.259 312.69 669.344 313.138 669.344C313.394 669.344 313.645 669.317 313.89 669.264C314.135 669.2 314.37 669.125 314.594 669.04C314.818 668.944 315.026 668.843 315.218 668.736C315.41 668.629 315.581 668.523 315.73 668.416L315.922 669.328C315.783 669.413 315.613 669.509 315.41 669.616C315.207 669.712 314.983 669.803 314.738 669.888C314.493 669.973 314.221 670.043 313.922 670.096C313.634 670.16 313.33 670.192 313.01 670.192C312.413 670.192 311.885 670.091 311.426 669.888C310.967 669.675 310.583 669.392 310.274 669.04C309.965 668.677 309.73 668.261 309.57 667.792C309.41 667.323 309.33 666.832 309.33 666.32C309.33 665.797 309.41 665.301 309.57 664.832C309.741 664.352 309.986 663.931 310.306 663.568C310.626 663.205 311.021 662.923 311.49 662.72C311.97 662.507 312.514 662.4 313.122 662.4ZM313.074 663.296C312.37 663.296 311.821 663.483 311.426 663.856C311.042 664.219 310.781 664.677 310.642 665.232H315.01C315.021 665.179 315.026 665.131 315.026 665.088C315.026 665.045 315.026 664.997 315.026 664.944C315.026 664.677 314.973 664.443 314.866 664.24C314.759 664.027 314.615 663.851 314.434 663.712C314.253 663.573 314.045 663.472 313.81 663.408C313.575 663.333 313.33 663.296 313.074 663.296ZM322.044 662.4C322.588 662.4 323.062 662.507 323.468 662.72C323.873 662.933 324.209 663.216 324.476 663.568C324.742 663.92 324.94 664.331 325.068 664.8C325.206 665.259 325.276 665.744 325.276 666.256C325.276 666.789 325.201 667.296 325.052 667.776C324.913 668.245 324.7 668.661 324.412 669.024C324.134 669.376 323.782 669.659 323.356 669.872C322.929 670.085 322.433 670.192 321.868 670.192C321.153 670.192 320.566 670.037 320.108 669.728C319.649 669.419 319.35 669.035 319.212 668.576V674.16H318.092V662.64H318.972L319.1 664.016H319.164C319.292 663.824 319.446 663.632 319.628 663.44C319.82 663.237 320.038 663.061 320.284 662.912C320.529 662.763 320.796 662.64 321.084 662.544C321.382 662.448 321.702 662.4 322.044 662.4ZM321.756 663.344C321.244 663.344 320.764 663.483 320.316 663.76C319.878 664.037 319.51 664.437 319.212 664.96V667.312C319.308 667.621 319.446 667.893 319.628 668.128C319.809 668.363 320.017 668.565 320.252 668.736C320.497 668.907 320.753 669.035 321.02 669.12C321.297 669.205 321.574 669.248 321.852 669.248C322.225 669.248 322.55 669.173 322.828 669.024C323.105 668.875 323.334 668.667 323.516 668.4C323.708 668.133 323.852 667.824 323.948 667.472C324.044 667.12 324.092 666.741 324.092 666.336C324.092 665.952 324.044 665.579 323.948 665.216C323.862 664.853 323.724 664.533 323.532 664.256C323.34 663.979 323.094 663.76 322.796 663.6C322.508 663.429 322.161 663.344 321.756 663.344ZM328.415 670H327.295V662.64H328.415V670ZM327.055 659.952C327.055 659.739 327.13 659.547 327.279 659.376C327.439 659.205 327.631 659.12 327.855 659.12C328.068 659.12 328.26 659.205 328.431 659.376C328.602 659.547 328.687 659.739 328.687 659.952C328.687 660.176 328.602 660.368 328.431 660.528C328.26 660.677 328.068 660.752 327.855 660.752C327.631 660.752 327.439 660.677 327.279 660.528C327.13 660.368 327.055 660.176 327.055 659.952ZM336.072 670V665.136C336.072 664.496 335.928 664.037 335.64 663.76C335.352 663.483 334.984 663.344 334.536 663.344C334.27 663.344 334.003 663.387 333.736 663.472C333.48 663.557 333.24 663.685 333.016 663.856C332.792 664.016 332.595 664.219 332.424 664.464C332.254 664.699 332.12 664.971 332.024 665.28V670H330.904V662.64H331.784L331.912 664.016H331.976C332.115 663.568 332.424 663.189 332.904 662.88C333.384 662.56 333.982 662.4 334.696 662.4C335.038 662.4 335.358 662.448 335.656 662.544C335.966 662.629 336.232 662.773 336.456 662.976C336.68 663.179 336.856 663.445 336.984 663.776C337.123 664.107 337.192 664.512 337.192 664.992V670H336.072ZM340.631 667.728C340.119 667.525 339.751 667.205 339.527 666.768C339.303 666.32 339.191 665.84 339.191 665.328C339.191 664.912 339.26 664.528 339.399 664.176C339.538 663.824 339.735 663.515 339.991 663.248C340.258 662.981 340.572 662.773 340.935 662.624C341.308 662.475 341.73 662.4 342.199 662.4C342.476 662.4 342.748 662.427 343.015 662.48C343.292 662.533 343.532 662.613 343.735 662.72C344.183 662.709 344.599 662.683 344.983 662.64C345.378 662.597 345.746 662.528 346.087 662.432L346.167 662.496L346.055 663.376L345.975 663.456L344.519 663.392L344.503 663.44C344.78 663.664 344.983 663.957 345.111 664.32C345.239 664.683 345.303 665.035 345.303 665.376C345.303 665.728 345.234 666.064 345.095 666.384C344.967 666.704 344.775 666.987 344.519 667.232C344.263 667.467 343.943 667.659 343.559 667.808C343.186 667.947 342.754 668.016 342.263 668.016C342.146 668.016 342.044 668.016 341.959 668.016C341.874 668.005 341.794 668 341.719 668C341.495 668.075 341.324 668.176 341.207 668.304C341.1 668.432 341.047 668.539 341.047 668.624C341.047 668.731 341.116 668.827 341.255 668.912C341.404 668.987 341.639 669.04 341.959 669.072L343.511 669.232C343.863 669.264 344.188 669.339 344.487 669.456C344.796 669.563 345.063 669.707 345.287 669.888C345.511 670.059 345.687 670.267 345.815 670.512C345.954 670.768 346.023 671.056 346.023 671.376C346.023 671.685 345.954 672 345.815 672.32C345.676 672.651 345.468 672.933 345.191 673.168C344.914 673.403 344.53 673.595 344.039 673.744C343.548 673.893 342.983 673.968 342.343 673.968C341.799 673.968 341.308 673.909 340.871 673.792C340.444 673.685 340.082 673.531 339.783 673.328C339.495 673.136 339.271 672.912 339.111 672.656C338.962 672.4 338.887 672.128 338.887 671.84C338.887 671.627 338.93 671.413 339.015 671.2C339.1 670.997 339.212 670.805 339.351 670.624C339.49 670.443 339.65 670.283 339.831 670.144C340.023 670.005 340.22 669.899 340.423 669.824V669.76C339.986 669.557 339.767 669.28 339.767 668.928C339.767 668.704 339.847 668.501 340.007 668.32C340.178 668.139 340.386 667.963 340.631 667.792V667.728ZM342.263 667.216C342.562 667.216 342.823 667.168 343.047 667.072C343.282 666.965 343.479 666.832 343.639 666.672C343.799 666.501 343.922 666.304 344.007 666.08C344.092 665.856 344.135 665.621 344.135 665.376C344.135 665.131 344.092 664.88 344.007 664.624C343.922 664.368 343.794 664.139 343.623 663.936C343.463 663.723 343.26 663.552 343.015 663.424C342.77 663.296 342.487 663.232 342.167 663.232C341.858 663.232 341.586 663.296 341.351 663.424C341.127 663.541 340.935 663.696 340.775 663.888C340.626 664.08 340.514 664.293 340.439 664.528C340.364 664.763 340.327 664.997 340.327 665.232C340.327 665.477 340.364 665.717 340.439 665.952C340.524 666.187 340.647 666.4 340.807 666.592C340.978 666.773 341.18 666.923 341.415 667.04C341.66 667.157 341.943 667.216 342.263 667.216ZM341.751 670.08C341.506 670.08 341.276 670.128 341.063 670.224C340.86 670.32 340.679 670.443 340.519 670.592C340.37 670.741 340.247 670.907 340.151 671.088C340.066 671.28 340.023 671.467 340.023 671.648C340.023 672.053 340.236 672.373 340.663 672.608C341.1 672.853 341.687 672.976 342.423 672.976C342.775 672.976 343.1 672.944 343.399 672.88C343.708 672.827 343.97 672.736 344.183 672.608C344.407 672.491 344.583 672.341 344.711 672.16C344.839 671.989 344.903 671.781 344.903 671.536C344.903 671.056 344.642 670.709 344.119 670.496C343.607 670.293 342.818 670.155 341.751 670.08ZM352.886 670H351.766V658.16H352.886V670ZM358.778 662.4C359.717 662.4 360.442 662.64 360.954 663.12C361.466 663.589 361.722 664.256 361.722 665.12C361.722 665.301 361.712 665.488 361.69 665.68C361.669 665.861 361.632 665.995 361.578 666.08H356.186V666.24C356.186 666.645 356.24 667.035 356.346 667.408C356.453 667.781 356.613 668.112 356.826 668.4C357.04 668.688 357.306 668.917 357.626 669.088C357.957 669.259 358.346 669.344 358.794 669.344C359.05 669.344 359.301 669.317 359.546 669.264C359.792 669.2 360.026 669.125 360.25 669.04C360.474 668.944 360.682 668.843 360.874 668.736C361.066 668.629 361.237 668.523 361.386 668.416L361.578 669.328C361.44 669.413 361.269 669.509 361.066 669.616C360.864 669.712 360.64 669.803 360.394 669.888C360.149 669.973 359.877 670.043 359.578 670.096C359.29 670.16 358.986 670.192 358.666 670.192C358.069 670.192 357.541 670.091 357.082 669.888C356.624 669.675 356.24 669.392 355.93 669.04C355.621 668.677 355.386 668.261 355.226 667.792C355.066 667.323 354.986 666.832 354.986 666.32C354.986 665.797 355.066 665.301 355.226 664.832C355.397 664.352 355.642 663.931 355.962 663.568C356.282 663.205 356.677 662.923 357.146 662.72C357.626 662.507 358.17 662.4 358.778 662.4ZM358.73 663.296C358.026 663.296 357.477 663.483 357.082 663.856C356.698 664.219 356.437 664.677 356.298 665.232H360.666C360.677 665.179 360.682 665.131 360.682 665.088C360.682 665.045 360.682 664.997 360.682 664.944C360.682 664.677 360.629 664.443 360.522 664.24C360.416 664.027 360.272 663.851 360.09 663.712C359.909 663.573 359.701 663.472 359.466 663.408C359.232 663.333 358.986 663.296 358.73 663.296ZM368.42 670L368.292 668.688H368.228C368.1 668.891 367.929 669.083 367.716 669.264C367.503 669.445 367.263 669.605 366.996 669.744C366.74 669.883 366.457 669.989 366.148 670.064C365.849 670.149 365.551 670.192 365.252 670.192C364.548 670.192 364.02 669.989 363.668 669.584C363.316 669.168 363.14 668.651 363.14 668.032C363.14 667.424 363.295 666.939 363.604 666.576C363.913 666.213 364.292 665.941 364.74 665.76C365.188 665.579 365.657 665.461 366.148 665.408C366.649 665.355 367.087 665.328 367.46 665.328H368.18V665.136C368.18 664.731 368.121 664.421 368.004 664.208C367.897 663.995 367.737 663.813 367.524 663.664C367.343 663.547 367.145 663.467 366.932 663.424C366.729 663.371 366.457 663.344 366.116 663.344C365.668 663.344 365.273 663.403 364.932 663.52C364.591 663.637 364.26 663.792 363.94 663.984L363.684 663.024C364.399 662.608 365.252 662.4 366.244 662.4C366.639 662.4 367.012 662.437 367.364 662.512C367.716 662.576 368.025 662.693 368.292 662.864C368.601 663.056 368.847 663.328 369.028 663.68C369.209 664.032 369.3 664.469 369.3 664.992V670H368.42ZM365.588 669.248C366.025 669.248 366.489 669.109 366.98 668.832C367.471 668.555 367.871 668.155 368.18 667.632V666.144H368.036C367.599 666.144 367.161 666.16 366.724 666.192C366.287 666.224 365.887 666.304 365.524 666.432C365.172 666.56 364.884 666.747 364.66 666.992C364.436 667.227 364.324 667.552 364.324 667.968C364.324 668.384 364.436 668.704 364.66 668.928C364.895 669.141 365.204 669.248 365.588 669.248ZM375.685 663.824C375.514 663.728 375.343 663.653 375.173 663.6C375.002 663.536 374.837 663.504 374.677 663.504C374.463 663.504 374.261 663.563 374.069 663.68C373.877 663.797 373.701 663.957 373.541 664.16C373.381 664.363 373.237 664.597 373.109 664.864C372.991 665.131 372.901 665.408 372.837 665.696V670H371.717V662.64H372.597L372.725 664.256H372.789C372.863 664.011 372.959 663.776 373.077 663.552C373.205 663.328 373.354 663.131 373.525 662.96C373.706 662.789 373.909 662.656 374.133 662.56C374.357 662.453 374.613 662.4 374.901 662.4C375.103 662.4 375.317 662.437 375.541 662.512C375.765 662.576 375.925 662.661 376.021 662.768L375.685 663.824ZM382.604 670V665.136C382.604 664.496 382.46 664.037 382.172 663.76C381.884 663.483 381.516 663.344 381.068 663.344C380.801 663.344 380.534 663.387 380.268 663.472C380.012 663.557 379.772 663.685 379.548 663.856C379.324 664.016 379.126 664.219 378.956 664.464C378.785 664.699 378.652 664.971 378.556 665.28V670H377.436V662.64H378.316L378.444 664.016H378.508C378.646 663.568 378.956 663.189 379.436 662.88C379.916 662.56 380.513 662.4 381.228 662.4C381.569 662.4 381.889 662.448 382.188 662.544C382.497 662.629 382.764 662.773 382.988 662.976C383.212 663.179 383.388 663.445 383.516 663.776C383.654 664.107 383.724 664.512 383.724 664.992V670H382.604ZM387.274 670H386.154V662.64H387.274V670ZM385.914 659.952C385.914 659.739 385.989 659.547 386.138 659.376C386.298 659.205 386.49 659.12 386.714 659.12C386.928 659.12 387.12 659.205 387.29 659.376C387.461 659.547 387.546 659.739 387.546 659.952C387.546 660.176 387.461 660.368 387.29 660.528C387.12 660.677 386.928 660.752 386.714 660.752C386.49 660.752 386.298 660.677 386.138 660.528C385.989 660.368 385.914 660.176 385.914 659.952ZM394.932 670V665.136C394.932 664.496 394.788 664.037 394.5 663.76C394.212 663.483 393.844 663.344 393.396 663.344C393.129 663.344 392.862 663.387 392.596 663.472C392.34 663.557 392.1 663.685 391.876 663.856C391.652 664.016 391.454 664.219 391.284 664.464C391.113 664.699 390.98 664.971 390.884 665.28V670H389.764V662.64H390.644L390.772 664.016H390.836C390.974 663.568 391.284 663.189 391.764 662.88C392.244 662.56 392.841 662.4 393.556 662.4C393.897 662.4 394.217 662.448 394.516 662.544C394.825 662.629 395.092 662.773 395.316 662.976C395.54 663.179 395.716 663.445 395.844 663.776C395.982 664.107 396.052 664.512 396.052 664.992V670H394.932ZM399.49 667.728C398.978 667.525 398.61 667.205 398.386 666.768C398.162 666.32 398.05 665.84 398.05 665.328C398.05 664.912 398.12 664.528 398.258 664.176C398.397 663.824 398.594 663.515 398.85 663.248C399.117 662.981 399.432 662.773 399.794 662.624C400.168 662.475 400.589 662.4 401.058 662.4C401.336 662.4 401.608 662.427 401.874 662.48C402.152 662.533 402.392 662.613 402.594 662.72C403.042 662.709 403.458 662.683 403.842 662.64C404.237 662.597 404.605 662.528 404.946 662.432L405.026 662.496L404.914 663.376L404.834 663.456L403.378 663.392L403.362 663.44C403.64 663.664 403.842 663.957 403.97 664.32C404.098 664.683 404.162 665.035 404.162 665.376C404.162 665.728 404.093 666.064 403.954 666.384C403.826 666.704 403.634 666.987 403.378 667.232C403.122 667.467 402.802 667.659 402.418 667.808C402.045 667.947 401.613 668.016 401.122 668.016C401.005 668.016 400.904 668.016 400.818 668.016C400.733 668.005 400.653 668 400.578 668C400.354 668.075 400.184 668.176 400.066 668.304C399.96 668.432 399.906 668.539 399.906 668.624C399.906 668.731 399.976 668.827 400.114 668.912C400.264 668.987 400.498 669.04 400.818 669.072L402.37 669.232C402.722 669.264 403.048 669.339 403.346 669.456C403.656 669.563 403.922 669.707 404.146 669.888C404.37 670.059 404.546 670.267 404.674 670.512C404.813 670.768 404.882 671.056 404.882 671.376C404.882 671.685 404.813 672 404.674 672.32C404.536 672.651 404.328 672.933 404.05 673.168C403.773 673.403 403.389 673.595 402.898 673.744C402.408 673.893 401.842 673.968 401.202 673.968C400.658 673.968 400.168 673.909 399.73 673.792C399.304 673.685 398.941 673.531 398.642 673.328C398.354 673.136 398.13 672.912 397.97 672.656C397.821 672.4 397.746 672.128 397.746 671.84C397.746 671.627 397.789 671.413 397.874 671.2C397.96 670.997 398.072 670.805 398.21 670.624C398.349 670.443 398.509 670.283 398.69 670.144C398.882 670.005 399.08 669.899 399.282 669.824V669.76C398.845 669.557 398.626 669.28 398.626 668.928C398.626 668.704 398.706 668.501 398.866 668.32C399.037 668.139 399.245 667.963 399.49 667.792V667.728ZM401.122 667.216C401.421 667.216 401.682 667.168 401.906 667.072C402.141 666.965 402.338 666.832 402.498 666.672C402.658 666.501 402.781 666.304 402.866 666.08C402.952 665.856 402.994 665.621 402.994 665.376C402.994 665.131 402.952 664.88 402.866 664.624C402.781 664.368 402.653 664.139 402.482 663.936C402.322 663.723 402.12 663.552 401.874 663.424C401.629 663.296 401.346 663.232 401.026 663.232C400.717 663.232 400.445 663.296 400.21 663.424C399.986 663.541 399.794 663.696 399.634 663.888C399.485 664.08 399.373 664.293 399.298 664.528C399.224 664.763 399.186 664.997 399.186 665.232C399.186 665.477 399.224 665.717 399.298 665.952C399.384 666.187 399.506 666.4 399.666 666.592C399.837 666.773 400.04 666.923 400.274 667.04C400.52 667.157 400.802 667.216 401.122 667.216ZM400.61 670.08C400.365 670.08 400.136 670.128 399.922 670.224C399.72 670.32 399.538 670.443 399.378 670.592C399.229 670.741 399.106 670.907 399.01 671.088C398.925 671.28 398.882 671.467 398.882 671.648C398.882 672.053 399.096 672.373 399.522 672.608C399.96 672.853 400.546 672.976 401.282 672.976C401.634 672.976 401.96 672.944 402.258 672.88C402.568 672.827 402.829 672.736 403.042 672.608C403.266 672.491 403.442 672.341 403.57 672.16C403.698 671.989 403.762 671.781 403.762 671.536C403.762 671.056 403.501 670.709 402.978 670.496C402.466 670.293 401.677 670.155 400.61 670.08ZM406.495 669.44C406.495 669.237 406.565 669.061 406.703 668.912C406.842 668.752 407.018 668.672 407.231 668.672C407.434 668.672 407.61 668.752 407.759 668.912C407.919 669.061 407.999 669.237 407.999 669.44C407.999 669.643 407.919 669.819 407.759 669.968C407.61 670.107 407.434 670.176 407.231 670.176C407.018 670.176 406.842 670.107 406.703 669.968C406.565 669.819 406.495 669.643 406.495 669.44ZM410.261 669.44C410.261 669.237 410.33 669.061 410.469 668.912C410.608 668.752 410.784 668.672 410.997 668.672C411.2 668.672 411.376 668.752 411.525 668.912C411.685 669.061 411.765 669.237 411.765 669.44C411.765 669.643 411.685 669.819 411.525 669.968C411.376 670.107 411.2 670.176 410.997 670.176C410.784 670.176 410.608 670.107 410.469 669.968C410.33 669.819 410.261 669.643 410.261 669.44ZM414.027 669.44C414.027 669.237 414.096 669.061 414.235 668.912C414.373 668.752 414.549 668.672 414.763 668.672C414.965 668.672 415.141 668.752 415.291 668.912C415.451 669.061 415.531 669.237 415.531 669.44C415.531 669.643 415.451 669.819 415.291 669.968C415.141 670.107 414.965 670.176 414.763 670.176C414.549 670.176 414.373 670.107 414.235 669.968C414.096 669.819 414.027 669.643 414.027 669.44Z" fill="white"/>
</svg>
